<mxfile host="65bd71144e">
    <diagram id="-5hhiTOJYaTxIGmJzifk" name="modelo entidad-relaciÃ³n">
        <mxGraphModel dx="1981" dy="782" grid="1" gridSize="10" guides="1" tooltips="1" connect="1" arrows="1" fold="1" page="1" pageScale="1" pageWidth="827" pageHeight="1169" math="0" shadow="0">
            <root>
                <mxCell id="0"/>
                <mxCell id="1" parent="0"/>
                <mxCell id="15" value="products" style="shape=table;startSize=40;container=1;collapsible=0;childLayout=tableLayout;fixedRows=1;rowLines=0;fontStyle=3;align=center;pointerEvents=1;fillColor=#FFFF99;fontColor=#000000;strokeColor=#FFFF00;gradientColor=#FFFF00;swimlaneFillColor=#1A1A1A;fontFamily=Georgia;" parent="1" vertex="1">
                    <mxGeometry x="-77" y="120" width="200" height="240" as="geometry"/>
                </mxCell>
                <mxCell id="16" value="" style="shape=partialRectangle;html=1;whiteSpace=wrap;collapsible=0;dropTarget=0;pointerEvents=1;fillColor=none;top=0;left=0;bottom=1;right=0;points=[[0,0.5],[1,0.5]];portConstraint=eastwest;" parent="15" vertex="1">
                    <mxGeometry y="40" width="200" height="40" as="geometry"/>
                </mxCell>
                <mxCell id="17" value="1" style="shape=partialRectangle;html=1;whiteSpace=wrap;connectable=0;fillColor=none;top=0;left=0;bottom=0;right=0;overflow=hidden;pointerEvents=1;" parent="16" vertex="1">
                    <mxGeometry width="44" height="40" as="geometry">
                        <mxRectangle width="44" height="40" as="alternateBounds"/>
                    </mxGeometry>
                </mxCell>
                <mxCell id="18" value="id" style="shape=partialRectangle;html=1;whiteSpace=wrap;connectable=0;fillColor=none;top=0;left=0;bottom=0;right=0;align=left;spacingLeft=6;overflow=hidden;pointerEvents=1;" parent="16" vertex="1">
                    <mxGeometry x="44" width="156" height="40" as="geometry">
                        <mxRectangle width="156" height="40" as="alternateBounds"/>
                    </mxGeometry>
                </mxCell>
                <mxCell id="19" value="" style="shape=partialRectangle;html=1;whiteSpace=wrap;collapsible=0;dropTarget=0;pointerEvents=1;fillColor=none;top=0;left=0;bottom=0;right=0;points=[[0,0.5],[1,0.5]];portConstraint=eastwest;" parent="15" vertex="1">
                    <mxGeometry y="80" width="200" height="40" as="geometry"/>
                </mxCell>
                <mxCell id="20" value="2" style="shape=partialRectangle;html=1;whiteSpace=wrap;connectable=0;fillColor=none;top=0;left=0;bottom=0;right=0;overflow=hidden;pointerEvents=1;" parent="19" vertex="1">
                    <mxGeometry width="44" height="40" as="geometry">
                        <mxRectangle width="44" height="40" as="alternateBounds"/>
                    </mxGeometry>
                </mxCell>
                <mxCell id="21" value="name" style="shape=partialRectangle;html=1;whiteSpace=wrap;connectable=0;fillColor=none;top=0;left=0;bottom=0;right=0;align=left;spacingLeft=6;overflow=hidden;pointerEvents=1;" parent="19" vertex="1">
                    <mxGeometry x="44" width="156" height="40" as="geometry">
                        <mxRectangle width="156" height="40" as="alternateBounds"/>
                    </mxGeometry>
                </mxCell>
                <mxCell id="22" value="" style="shape=partialRectangle;html=1;whiteSpace=wrap;collapsible=0;dropTarget=0;pointerEvents=1;fillColor=none;top=0;left=0;bottom=0;right=0;points=[[0,0.5],[1,0.5]];portConstraint=eastwest;" parent="15" vertex="1">
                    <mxGeometry y="120" width="200" height="40" as="geometry"/>
                </mxCell>
                <mxCell id="23" value="3" style="shape=partialRectangle;html=1;whiteSpace=wrap;connectable=0;fillColor=none;top=0;left=0;bottom=0;right=0;overflow=hidden;pointerEvents=1;" parent="22" vertex="1">
                    <mxGeometry width="44" height="40" as="geometry">
                        <mxRectangle width="44" height="40" as="alternateBounds"/>
                    </mxGeometry>
                </mxCell>
                <mxCell id="24" value="price" style="shape=partialRectangle;html=1;whiteSpace=wrap;connectable=0;fillColor=none;top=0;left=0;bottom=0;right=0;align=left;spacingLeft=6;overflow=hidden;pointerEvents=1;" parent="22" vertex="1">
                    <mxGeometry x="44" width="156" height="40" as="geometry">
                        <mxRectangle width="156" height="40" as="alternateBounds"/>
                    </mxGeometry>
                </mxCell>
                <mxCell id="92" value="" style="shape=partialRectangle;html=1;whiteSpace=wrap;collapsible=0;dropTarget=0;pointerEvents=1;fillColor=none;top=0;left=0;bottom=0;right=0;points=[[0,0.5],[1,0.5]];portConstraint=eastwest;" parent="15" vertex="1">
                    <mxGeometry y="160" width="200" height="40" as="geometry"/>
                </mxCell>
                <mxCell id="93" value="4" style="shape=partialRectangle;html=1;whiteSpace=wrap;connectable=0;fillColor=none;top=0;left=0;bottom=0;right=0;overflow=hidden;pointerEvents=1;" parent="92" vertex="1">
                    <mxGeometry width="44" height="40" as="geometry">
                        <mxRectangle width="44" height="40" as="alternateBounds"/>
                    </mxGeometry>
                </mxCell>
                <mxCell id="94" value="expiration_date" style="shape=partialRectangle;html=1;whiteSpace=wrap;connectable=0;fillColor=none;top=0;left=0;bottom=0;right=0;align=left;spacingLeft=6;overflow=hidden;pointerEvents=1;" parent="92" vertex="1">
                    <mxGeometry x="44" width="156" height="40" as="geometry">
                        <mxRectangle width="156" height="40" as="alternateBounds"/>
                    </mxGeometry>
                </mxCell>
                <mxCell id="200" value="" style="shape=partialRectangle;html=1;whiteSpace=wrap;collapsible=0;dropTarget=0;pointerEvents=1;fillColor=none;top=0;left=0;bottom=0;right=0;points=[[0,0.5],[1,0.5]];portConstraint=eastwest;" parent="15" vertex="1">
                    <mxGeometry y="200" width="200" height="40" as="geometry"/>
                </mxCell>
                <mxCell id="201" value="5" style="shape=partialRectangle;html=1;whiteSpace=wrap;connectable=0;fillColor=none;top=0;left=0;bottom=0;right=0;overflow=hidden;pointerEvents=1;" parent="200" vertex="1">
                    <mxGeometry width="44" height="40" as="geometry">
                        <mxRectangle width="44" height="40" as="alternateBounds"/>
                    </mxGeometry>
                </mxCell>
                <mxCell id="202" value="brand_id" style="shape=partialRectangle;html=1;whiteSpace=wrap;connectable=0;fillColor=none;top=0;left=0;bottom=0;right=0;align=left;spacingLeft=6;overflow=hidden;pointerEvents=1;" parent="200" vertex="1">
                    <mxGeometry x="44" width="156" height="40" as="geometry">
                        <mxRectangle width="156" height="40" as="alternateBounds"/>
                    </mxGeometry>
                </mxCell>
                <mxCell id="35" value="products_payments" style="shape=table;startSize=40;container=1;collapsible=0;childLayout=tableLayout;fixedRows=1;rowLines=0;fontStyle=3;align=center;pointerEvents=1;fillColor=#2DE32D;fontColor=#000000;strokeColor=#B3FF66;gradientColor=#FFFF66;swimlaneFillColor=#1A1A1A;gradientDirection=west;fontFamily=Georgia;" parent="1" vertex="1">
                    <mxGeometry x="200" y="120" width="200" height="160" as="geometry"/>
                </mxCell>
                <mxCell id="36" value="" style="shape=partialRectangle;html=1;whiteSpace=wrap;collapsible=0;dropTarget=0;pointerEvents=1;fillColor=none;top=0;left=0;bottom=1;right=0;points=[[0,0.5],[1,0.5]];portConstraint=eastwest;" parent="35" vertex="1">
                    <mxGeometry y="40" width="200" height="40" as="geometry"/>
                </mxCell>
                <mxCell id="37" value="1" style="shape=partialRectangle;html=1;whiteSpace=wrap;connectable=0;fillColor=none;top=0;left=0;bottom=0;right=0;overflow=hidden;pointerEvents=1;" parent="36" vertex="1">
                    <mxGeometry width="44" height="40" as="geometry">
                        <mxRectangle width="44" height="40" as="alternateBounds"/>
                    </mxGeometry>
                </mxCell>
                <mxCell id="38" value="id" style="shape=partialRectangle;html=1;whiteSpace=wrap;connectable=0;fillColor=none;top=0;left=0;bottom=0;right=0;align=left;spacingLeft=6;overflow=hidden;pointerEvents=1;" parent="36" vertex="1">
                    <mxGeometry x="44" width="156" height="40" as="geometry">
                        <mxRectangle width="156" height="40" as="alternateBounds"/>
                    </mxGeometry>
                </mxCell>
                <mxCell id="39" value="" style="shape=partialRectangle;html=1;whiteSpace=wrap;collapsible=0;dropTarget=0;pointerEvents=1;fillColor=none;top=0;left=0;bottom=0;right=0;points=[[0,0.5],[1,0.5]];portConstraint=eastwest;" parent="35" vertex="1">
                    <mxGeometry y="80" width="200" height="40" as="geometry"/>
                </mxCell>
                <mxCell id="40" value="2" style="shape=partialRectangle;html=1;whiteSpace=wrap;connectable=0;fillColor=none;top=0;left=0;bottom=0;right=0;overflow=hidden;pointerEvents=1;" parent="39" vertex="1">
                    <mxGeometry width="44" height="40" as="geometry">
                        <mxRectangle width="44" height="40" as="alternateBounds"/>
                    </mxGeometry>
                </mxCell>
                <mxCell id="41" value="product_id" style="shape=partialRectangle;html=1;whiteSpace=wrap;connectable=0;fillColor=none;top=0;left=0;bottom=0;right=0;align=left;spacingLeft=6;overflow=hidden;pointerEvents=1;" parent="39" vertex="1">
                    <mxGeometry x="44" width="156" height="40" as="geometry">
                        <mxRectangle width="156" height="40" as="alternateBounds"/>
                    </mxGeometry>
                </mxCell>
                <mxCell id="42" value="" style="shape=partialRectangle;html=1;whiteSpace=wrap;collapsible=0;dropTarget=0;pointerEvents=1;fillColor=none;top=0;left=0;bottom=0;right=0;points=[[0,0.5],[1,0.5]];portConstraint=eastwest;" parent="35" vertex="1">
                    <mxGeometry y="120" width="200" height="40" as="geometry"/>
                </mxCell>
                <mxCell id="43" value="3" style="shape=partialRectangle;html=1;whiteSpace=wrap;connectable=0;fillColor=none;top=0;left=0;bottom=0;right=0;overflow=hidden;pointerEvents=1;" parent="42" vertex="1">
                    <mxGeometry width="44" height="40" as="geometry">
                        <mxRectangle width="44" height="40" as="alternateBounds"/>
                    </mxGeometry>
                </mxCell>
                <mxCell id="44" value="payment_id" style="shape=partialRectangle;html=1;whiteSpace=wrap;connectable=0;fillColor=none;top=0;left=0;bottom=0;right=0;align=left;spacingLeft=6;overflow=hidden;pointerEvents=1;" parent="42" vertex="1">
                    <mxGeometry x="44" width="156" height="40" as="geometry">
                        <mxRectangle width="156" height="40" as="alternateBounds"/>
                    </mxGeometry>
                </mxCell>
                <mxCell id="45" value="payments" style="shape=table;startSize=40;container=1;collapsible=0;childLayout=tableLayout;fixedRows=1;rowLines=0;fontStyle=3;align=center;pointerEvents=1;fillColor=#B3FF66;fontColor=#000000;strokeColor=#2D7600;gradientColor=#008700;swimlaneFillColor=#1A1A1A;fontFamily=Georgia;" parent="1" vertex="1">
                    <mxGeometry x="480" y="120" width="200" height="240" as="geometry"/>
                </mxCell>
                <mxCell id="46" value="" style="shape=partialRectangle;html=1;whiteSpace=wrap;collapsible=0;dropTarget=0;pointerEvents=1;fillColor=none;top=0;left=0;bottom=1;right=0;points=[[0,0.5],[1,0.5]];portConstraint=eastwest;" parent="45" vertex="1">
                    <mxGeometry y="40" width="200" height="40" as="geometry"/>
                </mxCell>
                <mxCell id="47" value="1" style="shape=partialRectangle;html=1;whiteSpace=wrap;connectable=0;fillColor=none;top=0;left=0;bottom=0;right=0;overflow=hidden;pointerEvents=1;" parent="46" vertex="1">
                    <mxGeometry width="44" height="40" as="geometry">
                        <mxRectangle width="44" height="40" as="alternateBounds"/>
                    </mxGeometry>
                </mxCell>
                <mxCell id="48" value="id" style="shape=partialRectangle;html=1;whiteSpace=wrap;connectable=0;fillColor=none;top=0;left=0;bottom=0;right=0;align=left;spacingLeft=6;overflow=hidden;pointerEvents=1;" parent="46" vertex="1">
                    <mxGeometry x="44" width="156" height="40" as="geometry">
                        <mxRectangle width="156" height="40" as="alternateBounds"/>
                    </mxGeometry>
                </mxCell>
                <mxCell id="49" value="" style="shape=partialRectangle;html=1;whiteSpace=wrap;collapsible=0;dropTarget=0;pointerEvents=1;fillColor=none;top=0;left=0;bottom=0;right=0;points=[[0,0.5],[1,0.5]];portConstraint=eastwest;" parent="45" vertex="1">
                    <mxGeometry y="80" width="200" height="40" as="geometry"/>
                </mxCell>
                <mxCell id="50" value="2" style="shape=partialRectangle;html=1;whiteSpace=wrap;connectable=0;fillColor=none;top=0;left=0;bottom=0;right=0;overflow=hidden;pointerEvents=1;" parent="49" vertex="1">
                    <mxGeometry width="44" height="40" as="geometry">
                        <mxRectangle width="44" height="40" as="alternateBounds"/>
                    </mxGeometry>
                </mxCell>
                <mxCell id="51" value="user_id" style="shape=partialRectangle;html=1;whiteSpace=wrap;connectable=0;fillColor=none;top=0;left=0;bottom=0;right=0;align=left;spacingLeft=6;overflow=hidden;pointerEvents=1;" parent="49" vertex="1">
                    <mxGeometry x="44" width="156" height="40" as="geometry">
                        <mxRectangle width="156" height="40" as="alternateBounds"/>
                    </mxGeometry>
                </mxCell>
                <mxCell id="52" value="" style="shape=partialRectangle;html=1;whiteSpace=wrap;collapsible=0;dropTarget=0;pointerEvents=1;fillColor=none;top=0;left=0;bottom=0;right=0;points=[[0,0.5],[1,0.5]];portConstraint=eastwest;" parent="45" vertex="1">
                    <mxGeometry y="120" width="200" height="40" as="geometry"/>
                </mxCell>
                <mxCell id="53" value="3" style="shape=partialRectangle;html=1;whiteSpace=wrap;connectable=0;fillColor=none;top=0;left=0;bottom=0;right=0;overflow=hidden;pointerEvents=1;" parent="52" vertex="1">
                    <mxGeometry width="44" height="40" as="geometry">
                        <mxRectangle width="44" height="40" as="alternateBounds"/>
                    </mxGeometry>
                </mxCell>
                <mxCell id="54" value="amount" style="shape=partialRectangle;html=1;whiteSpace=wrap;connectable=0;fillColor=none;top=0;left=0;bottom=0;right=0;align=left;spacingLeft=6;overflow=hidden;pointerEvents=1;" parent="52" vertex="1">
                    <mxGeometry x="44" width="156" height="40" as="geometry">
                        <mxRectangle width="156" height="40" as="alternateBounds"/>
                    </mxGeometry>
                </mxCell>
                <mxCell id="166" value="" style="shape=partialRectangle;html=1;whiteSpace=wrap;collapsible=0;dropTarget=0;pointerEvents=1;fillColor=none;top=0;left=0;bottom=0;right=0;points=[[0,0.5],[1,0.5]];portConstraint=eastwest;" parent="45" vertex="1">
                    <mxGeometry y="160" width="200" height="40" as="geometry"/>
                </mxCell>
                <mxCell id="167" value="4" style="shape=partialRectangle;html=1;whiteSpace=wrap;connectable=0;fillColor=none;top=0;left=0;bottom=0;right=0;overflow=hidden;pointerEvents=1;" parent="166" vertex="1">
                    <mxGeometry width="44" height="40" as="geometry">
                        <mxRectangle width="44" height="40" as="alternateBounds"/>
                    </mxGeometry>
                </mxCell>
                <mxCell id="168" value="date" style="shape=partialRectangle;html=1;whiteSpace=wrap;connectable=0;fillColor=none;top=0;left=0;bottom=0;right=0;align=left;spacingLeft=6;overflow=hidden;pointerEvents=1;" parent="166" vertex="1">
                    <mxGeometry x="44" width="156" height="40" as="geometry">
                        <mxRectangle width="156" height="40" as="alternateBounds"/>
                    </mxGeometry>
                </mxCell>
                <mxCell id="169" value="" style="shape=partialRectangle;html=1;whiteSpace=wrap;collapsible=0;dropTarget=0;pointerEvents=1;fillColor=none;top=0;left=0;bottom=0;right=0;points=[[0,0.5],[1,0.5]];portConstraint=eastwest;" parent="45" vertex="1">
                    <mxGeometry y="200" width="200" height="40" as="geometry"/>
                </mxCell>
                <mxCell id="170" value="5" style="shape=partialRectangle;html=1;whiteSpace=wrap;connectable=0;fillColor=none;top=0;left=0;bottom=0;right=0;overflow=hidden;pointerEvents=1;" parent="169" vertex="1">
                    <mxGeometry width="44" height="40" as="geometry">
                        <mxRectangle width="44" height="40" as="alternateBounds"/>
                    </mxGeometry>
                </mxCell>
                <mxCell id="171" value="method_id" style="shape=partialRectangle;html=1;whiteSpace=wrap;connectable=0;fillColor=none;top=0;left=0;bottom=0;right=0;align=left;spacingLeft=6;overflow=hidden;pointerEvents=1;" parent="169" vertex="1">
                    <mxGeometry x="44" width="156" height="40" as="geometry">
                        <mxRectangle width="156" height="40" as="alternateBounds"/>
                    </mxGeometry>
                </mxCell>
                <mxCell id="98" value="users" style="shape=table;startSize=40;container=1;collapsible=0;childLayout=tableLayout;fixedRows=1;rowLines=0;fontStyle=3;align=center;pointerEvents=1;fillColor=#FF99CC;fontColor=#000000;strokeColor=#A50040;swimlaneFillColor=#1A1A1A;gradientColor=#FF0080;fontFamily=Georgia;" parent="1" vertex="1">
                    <mxGeometry x="760" y="120" width="160" height="280" as="geometry"/>
                </mxCell>
                <mxCell id="99" value="" style="shape=partialRectangle;html=1;whiteSpace=wrap;collapsible=0;dropTarget=0;pointerEvents=1;fillColor=none;top=0;left=0;bottom=1;right=0;points=[[0,0.5],[1,0.5]];portConstraint=eastwest;" parent="98" vertex="1">
                    <mxGeometry y="40" width="160" height="40" as="geometry"/>
                </mxCell>
                <mxCell id="100" value="1" style="shape=partialRectangle;html=1;whiteSpace=wrap;connectable=0;fillColor=none;top=0;left=0;bottom=0;right=0;overflow=hidden;pointerEvents=1;" parent="99" vertex="1">
                    <mxGeometry width="40" height="40" as="geometry">
                        <mxRectangle width="40" height="40" as="alternateBounds"/>
                    </mxGeometry>
                </mxCell>
                <mxCell id="101" value="id" style="shape=partialRectangle;html=1;whiteSpace=wrap;connectable=0;fillColor=none;top=0;left=0;bottom=0;right=0;align=left;spacingLeft=6;overflow=hidden;pointerEvents=1;" parent="99" vertex="1">
                    <mxGeometry x="40" width="120" height="40" as="geometry">
                        <mxRectangle width="120" height="40" as="alternateBounds"/>
                    </mxGeometry>
                </mxCell>
                <mxCell id="102" value="" style="shape=partialRectangle;html=1;whiteSpace=wrap;collapsible=0;dropTarget=0;pointerEvents=1;fillColor=none;top=0;left=0;bottom=0;right=0;points=[[0,0.5],[1,0.5]];portConstraint=eastwest;" parent="98" vertex="1">
                    <mxGeometry y="80" width="160" height="40" as="geometry"/>
                </mxCell>
                <mxCell id="103" value="2" style="shape=partialRectangle;html=1;whiteSpace=wrap;connectable=0;fillColor=none;top=0;left=0;bottom=0;right=0;overflow=hidden;pointerEvents=1;" parent="102" vertex="1">
                    <mxGeometry width="40" height="40" as="geometry">
                        <mxRectangle width="40" height="40" as="alternateBounds"/>
                    </mxGeometry>
                </mxCell>
                <mxCell id="104" value="fullname&amp;nbsp;" style="shape=partialRectangle;html=1;whiteSpace=wrap;connectable=0;fillColor=none;top=0;left=0;bottom=0;right=0;align=left;spacingLeft=6;overflow=hidden;pointerEvents=1;" parent="102" vertex="1">
                    <mxGeometry x="40" width="120" height="40" as="geometry">
                        <mxRectangle width="120" height="40" as="alternateBounds"/>
                    </mxGeometry>
                </mxCell>
                <mxCell id="105" value="" style="shape=partialRectangle;html=1;whiteSpace=wrap;collapsible=0;dropTarget=0;pointerEvents=1;fillColor=none;top=0;left=0;bottom=0;right=0;points=[[0,0.5],[1,0.5]];portConstraint=eastwest;" parent="98" vertex="1">
                    <mxGeometry y="120" width="160" height="40" as="geometry"/>
                </mxCell>
                <mxCell id="106" value="3" style="shape=partialRectangle;html=1;whiteSpace=wrap;connectable=0;fillColor=none;top=0;left=0;bottom=0;right=0;overflow=hidden;pointerEvents=1;" parent="105" vertex="1">
                    <mxGeometry width="40" height="40" as="geometry">
                        <mxRectangle width="40" height="40" as="alternateBounds"/>
                    </mxGeometry>
                </mxCell>
                <mxCell id="107" value="document_number" style="shape=partialRectangle;html=1;whiteSpace=wrap;connectable=0;fillColor=none;top=0;left=0;bottom=0;right=0;align=left;spacingLeft=6;overflow=hidden;pointerEvents=1;" parent="105" vertex="1">
                    <mxGeometry x="40" width="120" height="40" as="geometry">
                        <mxRectangle width="120" height="40" as="alternateBounds"/>
                    </mxGeometry>
                </mxCell>
                <mxCell id="176" value="" style="shape=partialRectangle;html=1;whiteSpace=wrap;collapsible=0;dropTarget=0;pointerEvents=1;fillColor=none;top=0;left=0;bottom=0;right=0;points=[[0,0.5],[1,0.5]];portConstraint=eastwest;" parent="98" vertex="1">
                    <mxGeometry y="160" width="160" height="40" as="geometry"/>
                </mxCell>
                <mxCell id="177" value="4" style="shape=partialRectangle;html=1;whiteSpace=wrap;connectable=0;fillColor=none;top=0;left=0;bottom=0;right=0;overflow=hidden;pointerEvents=1;" parent="176" vertex="1">
                    <mxGeometry width="40" height="40" as="geometry">
                        <mxRectangle width="40" height="40" as="alternateBounds"/>
                    </mxGeometry>
                </mxCell>
                <mxCell id="178" value="phone" style="shape=partialRectangle;html=1;whiteSpace=wrap;connectable=0;fillColor=none;top=0;left=0;bottom=0;right=0;align=left;spacingLeft=6;overflow=hidden;pointerEvents=1;" parent="176" vertex="1">
                    <mxGeometry x="40" width="120" height="40" as="geometry">
                        <mxRectangle width="120" height="40" as="alternateBounds"/>
                    </mxGeometry>
                </mxCell>
                <mxCell id="179" value="" style="shape=partialRectangle;html=1;whiteSpace=wrap;collapsible=0;dropTarget=0;pointerEvents=1;fillColor=none;top=0;left=0;bottom=0;right=0;points=[[0,0.5],[1,0.5]];portConstraint=eastwest;" parent="98" vertex="1">
                    <mxGeometry y="200" width="160" height="40" as="geometry"/>
                </mxCell>
                <mxCell id="180" value="5" style="shape=partialRectangle;html=1;whiteSpace=wrap;connectable=0;fillColor=none;top=0;left=0;bottom=0;right=0;overflow=hidden;pointerEvents=1;" parent="179" vertex="1">
                    <mxGeometry width="40" height="40" as="geometry">
                        <mxRectangle width="40" height="40" as="alternateBounds"/>
                    </mxGeometry>
                </mxCell>
                <mxCell id="181" value="city_id" style="shape=partialRectangle;html=1;whiteSpace=wrap;connectable=0;fillColor=none;top=0;left=0;bottom=0;right=0;align=left;spacingLeft=6;overflow=hidden;pointerEvents=1;" parent="179" vertex="1">
                    <mxGeometry x="40" width="120" height="40" as="geometry">
                        <mxRectangle width="120" height="40" as="alternateBounds"/>
                    </mxGeometry>
                </mxCell>
                <mxCell id="OTByruMf7zxy5OIQpuHv-202" style="shape=partialRectangle;html=1;whiteSpace=wrap;collapsible=0;dropTarget=0;pointerEvents=1;fillColor=none;top=0;left=0;bottom=0;right=0;points=[[0,0.5],[1,0.5]];portConstraint=eastwest;" parent="98" vertex="1">
                    <mxGeometry y="240" width="160" height="40" as="geometry"/>
                </mxCell>
                <mxCell id="OTByruMf7zxy5OIQpuHv-203" value="6" style="shape=partialRectangle;html=1;whiteSpace=wrap;connectable=0;fillColor=none;top=0;left=0;bottom=0;right=0;overflow=hidden;pointerEvents=1;" parent="OTByruMf7zxy5OIQpuHv-202" vertex="1">
                    <mxGeometry width="40" height="40" as="geometry">
                        <mxRectangle width="40" height="40" as="alternateBounds"/>
                    </mxGeometry>
                </mxCell>
                <mxCell id="OTByruMf7zxy5OIQpuHv-204" value="document_type" style="shape=partialRectangle;html=1;whiteSpace=wrap;connectable=0;fillColor=none;top=0;left=0;bottom=0;right=0;align=left;spacingLeft=6;overflow=hidden;pointerEvents=1;" parent="OTByruMf7zxy5OIQpuHv-202" vertex="1">
                    <mxGeometry x="40" width="120" height="40" as="geometry">
                        <mxRectangle width="120" height="40" as="alternateBounds"/>
                    </mxGeometry>
                </mxCell>
                <mxCell id="108" value="features" style="shape=table;startSize=40;container=1;collapsible=0;childLayout=tableLayout;fixedRows=1;rowLines=0;fontStyle=3;align=center;pointerEvents=1;fillColor=#FFFF66;fontColor=#000000;strokeColor=#FF8000;gradientColor=#FF8000;swimlaneFillColor=#1A1A1A;fontFamily=Georgia;" parent="1" vertex="1">
                    <mxGeometry x="-640" y="120" width="200" height="120" as="geometry"/>
                </mxCell>
                <mxCell id="109" value="" style="shape=partialRectangle;html=1;whiteSpace=wrap;collapsible=0;dropTarget=0;pointerEvents=1;fillColor=none;top=0;left=0;bottom=1;right=0;points=[[0,0.5],[1,0.5]];portConstraint=eastwest;" parent="108" vertex="1">
                    <mxGeometry y="40" width="200" height="40" as="geometry"/>
                </mxCell>
                <mxCell id="110" value="1" style="shape=partialRectangle;html=1;whiteSpace=wrap;connectable=0;fillColor=none;top=0;left=0;bottom=0;right=0;overflow=hidden;pointerEvents=1;" parent="109" vertex="1">
                    <mxGeometry width="44" height="40" as="geometry">
                        <mxRectangle width="44" height="40" as="alternateBounds"/>
                    </mxGeometry>
                </mxCell>
                <mxCell id="111" value="id" style="shape=partialRectangle;html=1;whiteSpace=wrap;connectable=0;fillColor=none;top=0;left=0;bottom=0;right=0;align=left;spacingLeft=6;overflow=hidden;pointerEvents=1;" parent="109" vertex="1">
                    <mxGeometry x="44" width="156" height="40" as="geometry">
                        <mxRectangle width="156" height="40" as="alternateBounds"/>
                    </mxGeometry>
                </mxCell>
                <mxCell id="112" value="" style="shape=partialRectangle;html=1;whiteSpace=wrap;collapsible=0;dropTarget=0;pointerEvents=1;fillColor=none;top=0;left=0;bottom=0;right=0;points=[[0,0.5],[1,0.5]];portConstraint=eastwest;" parent="108" vertex="1">
                    <mxGeometry y="80" width="200" height="40" as="geometry"/>
                </mxCell>
                <mxCell id="113" value="2" style="shape=partialRectangle;html=1;whiteSpace=wrap;connectable=0;fillColor=none;top=0;left=0;bottom=0;right=0;overflow=hidden;pointerEvents=1;" parent="112" vertex="1">
                    <mxGeometry width="44" height="40" as="geometry">
                        <mxRectangle width="44" height="40" as="alternateBounds"/>
                    </mxGeometry>
                </mxCell>
                <mxCell id="114" value="name" style="shape=partialRectangle;html=1;whiteSpace=wrap;connectable=0;fillColor=none;top=0;left=0;bottom=0;right=0;align=left;spacingLeft=6;overflow=hidden;pointerEvents=1;" parent="112" vertex="1">
                    <mxGeometry x="44" width="156" height="40" as="geometry">
                        <mxRectangle width="156" height="40" as="alternateBounds"/>
                    </mxGeometry>
                </mxCell>
                <mxCell id="124" value="products_features" style="shape=table;startSize=40;container=1;collapsible=0;childLayout=tableLayout;fixedRows=1;rowLines=0;fontStyle=3;align=center;pointerEvents=1;fillColor=#FF9933;fontColor=#000000;strokeColor=#FFB366;gradientColor=#FFFF33;swimlaneFillColor=#1A1A1A;gradientDirection=east;fontFamily=Georgia;labelBackgroundColor=none;labelBorderColor=none;whiteSpace=wrap;" parent="1" vertex="1">
                    <mxGeometry x="-360" y="120" width="200" height="160" as="geometry"/>
                </mxCell>
                <mxCell id="125" value="" style="shape=partialRectangle;html=1;whiteSpace=wrap;collapsible=0;dropTarget=0;pointerEvents=1;fillColor=none;top=0;left=0;bottom=1;right=0;points=[[0,0.5],[1,0.5]];portConstraint=eastwest;" parent="124" vertex="1">
                    <mxGeometry y="40" width="200" height="40" as="geometry"/>
                </mxCell>
                <mxCell id="126" value="1" style="shape=partialRectangle;html=1;whiteSpace=wrap;connectable=0;fillColor=none;top=0;left=0;bottom=0;right=0;overflow=hidden;pointerEvents=1;" parent="125" vertex="1">
                    <mxGeometry width="44" height="40" as="geometry">
                        <mxRectangle width="44" height="40" as="alternateBounds"/>
                    </mxGeometry>
                </mxCell>
                <mxCell id="127" value="id" style="shape=partialRectangle;html=1;whiteSpace=wrap;connectable=0;fillColor=none;top=0;left=0;bottom=0;right=0;align=left;spacingLeft=6;overflow=hidden;pointerEvents=1;" parent="125" vertex="1">
                    <mxGeometry x="44" width="156" height="40" as="geometry">
                        <mxRectangle width="156" height="40" as="alternateBounds"/>
                    </mxGeometry>
                </mxCell>
                <mxCell id="128" value="" style="shape=partialRectangle;html=1;whiteSpace=wrap;collapsible=0;dropTarget=0;pointerEvents=1;fillColor=none;top=0;left=0;bottom=0;right=0;points=[[0,0.5],[1,0.5]];portConstraint=eastwest;" parent="124" vertex="1">
                    <mxGeometry y="80" width="200" height="40" as="geometry"/>
                </mxCell>
                <mxCell id="129" value="2" style="shape=partialRectangle;html=1;whiteSpace=wrap;connectable=0;fillColor=none;top=0;left=0;bottom=0;right=0;overflow=hidden;pointerEvents=1;" parent="128" vertex="1">
                    <mxGeometry width="44" height="40" as="geometry">
                        <mxRectangle width="44" height="40" as="alternateBounds"/>
                    </mxGeometry>
                </mxCell>
                <mxCell id="130" value="product_id" style="shape=partialRectangle;html=1;whiteSpace=wrap;connectable=0;fillColor=none;top=0;left=0;bottom=0;right=0;align=left;spacingLeft=6;overflow=hidden;pointerEvents=1;" parent="128" vertex="1">
                    <mxGeometry x="44" width="156" height="40" as="geometry">
                        <mxRectangle width="156" height="40" as="alternateBounds"/>
                    </mxGeometry>
                </mxCell>
                <mxCell id="131" value="" style="shape=partialRectangle;html=1;whiteSpace=wrap;collapsible=0;dropTarget=0;pointerEvents=1;fillColor=none;top=0;left=0;bottom=0;right=0;points=[[0,0.5],[1,0.5]];portConstraint=eastwest;" parent="124" vertex="1">
                    <mxGeometry y="120" width="200" height="40" as="geometry"/>
                </mxCell>
                <mxCell id="132" value="3" style="shape=partialRectangle;html=1;whiteSpace=wrap;connectable=0;fillColor=none;top=0;left=0;bottom=0;right=0;overflow=hidden;pointerEvents=1;" parent="131" vertex="1">
                    <mxGeometry width="44" height="40" as="geometry">
                        <mxRectangle width="44" height="40" as="alternateBounds"/>
                    </mxGeometry>
                </mxCell>
                <mxCell id="133" value="feature_id" style="shape=partialRectangle;html=1;whiteSpace=wrap;connectable=0;fillColor=none;top=0;left=0;bottom=0;right=0;align=left;spacingLeft=6;overflow=hidden;pointerEvents=1;" parent="131" vertex="1">
                    <mxGeometry x="44" width="156" height="40" as="geometry">
                        <mxRectangle width="156" height="40" as="alternateBounds"/>
                    </mxGeometry>
                </mxCell>
                <mxCell id="159" style="edgeStyle=none;html=1;exitX=1;exitY=0.5;exitDx=0;exitDy=0;entryX=0;entryY=0.5;entryDx=0;entryDy=0;endArrow=ERmany;endFill=0;" parent="1" target="131" edge="1">
                    <mxGeometry relative="1" as="geometry"/>
                </mxCell>
                <mxCell id="dQQ00V306qFxrc1iIwjg-205" style="edgeStyle=none;html=1;exitX=1;exitY=0.5;exitDx=0;exitDy=0;entryX=0;entryY=0.5;entryDx=0;entryDy=0;endArrow=ERmany;endFill=0;" parent="1" source="112" target="128" edge="1">
                    <mxGeometry relative="1" as="geometry"/>
                </mxCell>
                <mxCell id="dQQ00V306qFxrc1iIwjg-206" style="edgeStyle=none;html=1;exitX=0;exitY=0.5;exitDx=0;exitDy=0;entryX=1;entryY=0.5;entryDx=0;entryDy=0;endArrow=ERmany;endFill=0;" parent="1" source="19" target="128" edge="1">
                    <mxGeometry relative="1" as="geometry"/>
                </mxCell>
                <mxCell id="dQQ00V306qFxrc1iIwjg-207" style="edgeStyle=none;html=1;exitX=1;exitY=0.5;exitDx=0;exitDy=0;entryX=0;entryY=0.5;entryDx=0;entryDy=0;endArrow=ERmany;endFill=0;" parent="1" source="19" target="39" edge="1">
                    <mxGeometry relative="1" as="geometry"/>
                </mxCell>
                <mxCell id="dQQ00V306qFxrc1iIwjg-208" style="edgeStyle=none;html=1;exitX=0;exitY=0.5;exitDx=0;exitDy=0;entryX=1;entryY=0.5;entryDx=0;entryDy=0;endArrow=ERmany;endFill=0;" parent="1" source="49" target="39" edge="1">
                    <mxGeometry relative="1" as="geometry"/>
                </mxCell>
                <mxCell id="dQQ00V306qFxrc1iIwjg-209" style="edgeStyle=none;html=1;exitX=1;exitY=0.5;exitDx=0;exitDy=0;entryX=0;entryY=0.5;entryDx=0;entryDy=0;endArrow=classic;endFill=1;" parent="1" source="49" target="102" edge="1">
                    <mxGeometry relative="1" as="geometry"/>
                </mxCell>
                <mxCell id="qWwK-pj6ZTXl-6McOaey-212" style="edgeStyle=none;html=1;exitX=0.5;exitY=0;exitDx=0;exitDy=0;entryX=0.605;entryY=1;entryDx=0;entryDy=0;entryPerimeter=0;fontFamily=Georgia;fontColor=#FFFFFF;startArrow=classic;startFill=1;endArrow=none;endFill=0;" parent="1" target="169" edge="1">
                    <mxGeometry relative="1" as="geometry">
                        <mxPoint x="600" y="480" as="sourcePoint"/>
                    </mxGeometry>
                </mxCell>
                <mxCell id="qWwK-pj6ZTXl-6McOaey-223" value="methods" style="shape=table;startSize=40;container=1;collapsible=0;childLayout=tableLayout;fixedRows=1;rowLines=0;fontStyle=3;align=center;pointerEvents=1;fillColor=#66FFFF;fontColor=#000000;strokeColor=#66FFFF;swimlaneFillColor=#1A1A1A;gradientDirection=north;fontFamily=Georgia;gradientColor=#66FF66;" parent="1" vertex="1">
                    <mxGeometry x="480" y="480" width="200" height="120" as="geometry"/>
                </mxCell>
                <mxCell id="qWwK-pj6ZTXl-6McOaey-224" value="" style="shape=partialRectangle;html=1;whiteSpace=wrap;collapsible=0;dropTarget=0;pointerEvents=1;fillColor=none;top=0;left=0;bottom=1;right=0;points=[[0,0.5],[1,0.5]];portConstraint=eastwest;" parent="qWwK-pj6ZTXl-6McOaey-223" vertex="1">
                    <mxGeometry y="40" width="200" height="40" as="geometry"/>
                </mxCell>
                <mxCell id="qWwK-pj6ZTXl-6McOaey-225" value="1" style="shape=partialRectangle;html=1;whiteSpace=wrap;connectable=0;fillColor=none;top=0;left=0;bottom=0;right=0;overflow=hidden;pointerEvents=1;" parent="qWwK-pj6ZTXl-6McOaey-224" vertex="1">
                    <mxGeometry width="44" height="40" as="geometry">
                        <mxRectangle width="44" height="40" as="alternateBounds"/>
                    </mxGeometry>
                </mxCell>
                <mxCell id="qWwK-pj6ZTXl-6McOaey-226" value="id" style="shape=partialRectangle;html=1;whiteSpace=wrap;connectable=0;fillColor=none;top=0;left=0;bottom=0;right=0;align=left;spacingLeft=6;overflow=hidden;pointerEvents=1;" parent="qWwK-pj6ZTXl-6McOaey-224" vertex="1">
                    <mxGeometry x="44" width="156" height="40" as="geometry">
                        <mxRectangle width="156" height="40" as="alternateBounds"/>
                    </mxGeometry>
                </mxCell>
                <mxCell id="qWwK-pj6ZTXl-6McOaey-227" value="" style="shape=partialRectangle;html=1;whiteSpace=wrap;collapsible=0;dropTarget=0;pointerEvents=1;fillColor=none;top=0;left=0;bottom=0;right=0;points=[[0,0.5],[1,0.5]];portConstraint=eastwest;" parent="qWwK-pj6ZTXl-6McOaey-223" vertex="1">
                    <mxGeometry y="80" width="200" height="40" as="geometry"/>
                </mxCell>
                <mxCell id="qWwK-pj6ZTXl-6McOaey-228" value="2" style="shape=partialRectangle;html=1;whiteSpace=wrap;connectable=0;fillColor=none;top=0;left=0;bottom=0;right=0;overflow=hidden;pointerEvents=1;" parent="qWwK-pj6ZTXl-6McOaey-227" vertex="1">
                    <mxGeometry width="44" height="40" as="geometry">
                        <mxRectangle width="44" height="40" as="alternateBounds"/>
                    </mxGeometry>
                </mxCell>
                <mxCell id="qWwK-pj6ZTXl-6McOaey-229" value="type" style="shape=partialRectangle;html=1;whiteSpace=wrap;connectable=0;fillColor=none;top=0;left=0;bottom=0;right=0;align=left;spacingLeft=6;overflow=hidden;pointerEvents=1;" parent="qWwK-pj6ZTXl-6McOaey-227" vertex="1">
                    <mxGeometry x="44" width="156" height="40" as="geometry">
                        <mxRectangle width="156" height="40" as="alternateBounds"/>
                    </mxGeometry>
                </mxCell>
                <mxCell id="mEXmnrapkjE_O5qIM33u-209" style="edgeStyle=none;html=1;entryX=0.419;entryY=1.05;entryDx=0;entryDy=0;entryPerimeter=0;fontFamily=Georgia;fontColor=#FFFFFF;startArrow=classic;startFill=1;endArrow=none;endFill=0;exitX=0.419;exitY=-0.033;exitDx=0;exitDy=0;exitPerimeter=0;" parent="1" source="mEXmnrapkjE_O5qIM33u-202" target="OTByruMf7zxy5OIQpuHv-202" edge="1">
                    <mxGeometry relative="1" as="geometry">
                        <mxPoint x="827" y="470" as="sourcePoint"/>
                    </mxGeometry>
                </mxCell>
                <mxCell id="mEXmnrapkjE_O5qIM33u-202" value="cities" style="shape=table;startSize=40;container=1;collapsible=0;childLayout=tableLayout;fixedRows=1;rowLines=0;fontStyle=3;align=center;pointerEvents=1;fillColor=#D0CEE2;fontColor=#000000;strokeColor=#3700CC;swimlaneFillColor=#1A1A1A;gradientDirection=south;fontFamily=Georgia;gradientColor=#6666FF;" parent="1" vertex="1">
                    <mxGeometry x="760" y="480" width="160" height="120" as="geometry"/>
                </mxCell>
                <mxCell id="mEXmnrapkjE_O5qIM33u-203" value="" style="shape=partialRectangle;html=1;whiteSpace=wrap;collapsible=0;dropTarget=0;pointerEvents=1;fillColor=none;top=0;left=0;bottom=1;right=0;points=[[0,0.5],[1,0.5]];portConstraint=eastwest;" parent="mEXmnrapkjE_O5qIM33u-202" vertex="1">
                    <mxGeometry y="40" width="160" height="40" as="geometry"/>
                </mxCell>
                <mxCell id="mEXmnrapkjE_O5qIM33u-204" value="1" style="shape=partialRectangle;html=1;whiteSpace=wrap;connectable=0;fillColor=none;top=0;left=0;bottom=0;right=0;overflow=hidden;pointerEvents=1;" parent="mEXmnrapkjE_O5qIM33u-203" vertex="1">
                    <mxGeometry width="44" height="40" as="geometry">
                        <mxRectangle width="44" height="40" as="alternateBounds"/>
                    </mxGeometry>
                </mxCell>
                <mxCell id="mEXmnrapkjE_O5qIM33u-205" value="id" style="shape=partialRectangle;html=1;whiteSpace=wrap;connectable=0;fillColor=none;top=0;left=0;bottom=0;right=0;align=left;spacingLeft=6;overflow=hidden;pointerEvents=1;" parent="mEXmnrapkjE_O5qIM33u-203" vertex="1">
                    <mxGeometry x="44" width="116" height="40" as="geometry">
                        <mxRectangle width="116" height="40" as="alternateBounds"/>
                    </mxGeometry>
                </mxCell>
                <mxCell id="mEXmnrapkjE_O5qIM33u-206" value="" style="shape=partialRectangle;html=1;whiteSpace=wrap;collapsible=0;dropTarget=0;pointerEvents=1;fillColor=none;top=0;left=0;bottom=0;right=0;points=[[0,0.5],[1,0.5]];portConstraint=eastwest;" parent="mEXmnrapkjE_O5qIM33u-202" vertex="1">
                    <mxGeometry y="80" width="160" height="40" as="geometry"/>
                </mxCell>
                <mxCell id="mEXmnrapkjE_O5qIM33u-207" value="2" style="shape=partialRectangle;html=1;whiteSpace=wrap;connectable=0;fillColor=none;top=0;left=0;bottom=0;right=0;overflow=hidden;pointerEvents=1;" parent="mEXmnrapkjE_O5qIM33u-206" vertex="1">
                    <mxGeometry width="44" height="40" as="geometry">
                        <mxRectangle width="44" height="40" as="alternateBounds"/>
                    </mxGeometry>
                </mxCell>
                <mxCell id="mEXmnrapkjE_O5qIM33u-208" value="name" style="shape=partialRectangle;html=1;whiteSpace=wrap;connectable=0;fillColor=none;top=0;left=0;bottom=0;right=0;align=left;spacingLeft=6;overflow=hidden;pointerEvents=1;" parent="mEXmnrapkjE_O5qIM33u-206" vertex="1">
                    <mxGeometry x="44" width="116" height="40" as="geometry">
                        <mxRectangle width="116" height="40" as="alternateBounds"/>
                    </mxGeometry>
                </mxCell>
                <mxCell id="FNpANFlTfuvjzqTzm7sn-209" style="edgeStyle=none;html=1;exitX=0.5;exitY=0;exitDx=0;exitDy=0;entryX=0.5;entryY=1.025;entryDx=0;entryDy=0;entryPerimeter=0;fontFamily=Georgia;fontColor=#000000;startArrow=classic;startFill=1;endArrow=none;endFill=0;" parent="1" source="FNpANFlTfuvjzqTzm7sn-202" target="200" edge="1">
                    <mxGeometry relative="1" as="geometry"/>
                </mxCell>
                <mxCell id="FNpANFlTfuvjzqTzm7sn-202" value="brands" style="shape=table;startSize=40;container=1;collapsible=0;childLayout=tableLayout;fixedRows=1;rowLines=0;fontStyle=3;align=center;pointerEvents=1;fillColor=#66FFFF;fontColor=#000000;strokeColor=#FF66FF;swimlaneFillColor=#1A1A1A;gradientDirection=south;fontFamily=Georgia;gradientColor=#FF00FF;" parent="1" vertex="1">
                    <mxGeometry x="-80" y="480" width="200" height="120" as="geometry"/>
                </mxCell>
                <mxCell id="FNpANFlTfuvjzqTzm7sn-203" value="" style="shape=partialRectangle;html=1;whiteSpace=wrap;collapsible=0;dropTarget=0;pointerEvents=1;fillColor=none;top=0;left=0;bottom=1;right=0;points=[[0,0.5],[1,0.5]];portConstraint=eastwest;" parent="FNpANFlTfuvjzqTzm7sn-202" vertex="1">
                    <mxGeometry y="40" width="200" height="40" as="geometry"/>
                </mxCell>
                <mxCell id="FNpANFlTfuvjzqTzm7sn-204" value="1" style="shape=partialRectangle;html=1;whiteSpace=wrap;connectable=0;fillColor=none;top=0;left=0;bottom=0;right=0;overflow=hidden;pointerEvents=1;" parent="FNpANFlTfuvjzqTzm7sn-203" vertex="1">
                    <mxGeometry width="44" height="40" as="geometry">
                        <mxRectangle width="44" height="40" as="alternateBounds"/>
                    </mxGeometry>
                </mxCell>
                <mxCell id="FNpANFlTfuvjzqTzm7sn-205" value="id" style="shape=partialRectangle;html=1;whiteSpace=wrap;connectable=0;fillColor=none;top=0;left=0;bottom=0;right=0;align=left;spacingLeft=6;overflow=hidden;pointerEvents=1;" parent="FNpANFlTfuvjzqTzm7sn-203" vertex="1">
                    <mxGeometry x="44" width="156" height="40" as="geometry">
                        <mxRectangle width="156" height="40" as="alternateBounds"/>
                    </mxGeometry>
                </mxCell>
                <mxCell id="FNpANFlTfuvjzqTzm7sn-206" value="" style="shape=partialRectangle;html=1;whiteSpace=wrap;collapsible=0;dropTarget=0;pointerEvents=1;fillColor=none;top=0;left=0;bottom=0;right=0;points=[[0,0.5],[1,0.5]];portConstraint=eastwest;" parent="FNpANFlTfuvjzqTzm7sn-202" vertex="1">
                    <mxGeometry y="80" width="200" height="40" as="geometry"/>
                </mxCell>
                <mxCell id="FNpANFlTfuvjzqTzm7sn-207" value="2" style="shape=partialRectangle;html=1;whiteSpace=wrap;connectable=0;fillColor=none;top=0;left=0;bottom=0;right=0;overflow=hidden;pointerEvents=1;" parent="FNpANFlTfuvjzqTzm7sn-206" vertex="1">
                    <mxGeometry width="44" height="40" as="geometry">
                        <mxRectangle width="44" height="40" as="alternateBounds"/>
                    </mxGeometry>
                </mxCell>
                <mxCell id="FNpANFlTfuvjzqTzm7sn-208" value="name" style="shape=partialRectangle;html=1;whiteSpace=wrap;connectable=0;fillColor=none;top=0;left=0;bottom=0;right=0;align=left;spacingLeft=6;overflow=hidden;pointerEvents=1;" parent="FNpANFlTfuvjzqTzm7sn-206" vertex="1">
                    <mxGeometry x="44" width="156" height="40" as="geometry">
                        <mxRectangle width="156" height="40" as="alternateBounds"/>
                    </mxGeometry>
                </mxCell>
                <mxCell id="iyQ1jEB3x-4A9XdkGr1k-202" value="&lt;h1&gt;RetroalimentaciÃ³n&lt;/h1&gt;&lt;div&gt;1. Hiciste un excelente trabajo, sigue asÃ­!&lt;/div&gt;" style="text;html=1;strokeColor=none;fillColor=none;spacing=5;spacingTop=-20;whiteSpace=wrap;overflow=hidden;rounded=0;" vertex="1" parent="1">
                    <mxGeometry x="-640" y="480" width="310" height="250" as="geometry"/>
                </mxCell>
            </root>
        </mxGraphModel>
    </diagram>
    <diagram id="GK0KDmGRZCSPLEDGhb8H" name="data">
        <mxGraphModel dx="1154" dy="782" grid="1" gridSize="10" guides="1" tooltips="1" connect="1" arrows="1" fold="1" page="1" pageScale="1" pageWidth="827" pageHeight="1169" math="0" shadow="0">
            <root>
                <mxCell id="3rnbf16T3xSzr0oEW06G-0"/>
                <mxCell id="3rnbf16T3xSzr0oEW06G-1" parent="3rnbf16T3xSzr0oEW06G-0"/>
                <mxCell id="Q-CAjlZwqPiqT_vgyFkI-0" value="products" style="shape=table;startSize=40;container=1;collapsible=0;childLayout=tableLayout;labelBackgroundColor=none;labelBorderColor=none;fontFamily=Georgia;fontColor=#000000;strokeColor=#FFFFFF;fillColor=#FFFF00;gradientColor=#FFFF66;gradientDirection=north;swimlaneFillColor=#000000;fontStyle=3" parent="3rnbf16T3xSzr0oEW06G-1" vertex="1">
                    <mxGeometry x="800" y="40" width="360" height="240" as="geometry"/>
                </mxCell>
                <mxCell id="Q-CAjlZwqPiqT_vgyFkI-1" value="" style="shape=partialRectangle;collapsible=0;dropTarget=0;pointerEvents=0;fillColor=none;top=0;left=0;bottom=0;right=0;points=[[0,0.5],[1,0.5]];portConstraint=eastwest;labelBackgroundColor=none;labelBorderColor=none;fontFamily=Georgia;fontColor=#000000;strokeColor=#FFFFFF;" parent="Q-CAjlZwqPiqT_vgyFkI-0" vertex="1">
                    <mxGeometry y="40" width="360" height="40" as="geometry"/>
                </mxCell>
                <mxCell id="Q-CAjlZwqPiqT_vgyFkI-2" value="id" style="shape=partialRectangle;html=1;whiteSpace=wrap;connectable=0;overflow=hidden;fillColor=none;top=0;left=0;bottom=0;right=0;pointerEvents=1;labelBackgroundColor=none;labelBorderColor=none;fontFamily=Georgia;fontColor=#FFFFFF;strokeColor=#FFFFFF;" parent="Q-CAjlZwqPiqT_vgyFkI-1" vertex="1">
                    <mxGeometry width="65" height="40" as="geometry">
                        <mxRectangle width="65" height="40" as="alternateBounds"/>
                    </mxGeometry>
                </mxCell>
                <mxCell id="Q-CAjlZwqPiqT_vgyFkI-3" value="name" style="shape=partialRectangle;html=1;whiteSpace=wrap;connectable=0;overflow=hidden;fillColor=none;top=0;left=0;bottom=0;right=0;pointerEvents=1;labelBackgroundColor=none;labelBorderColor=none;fontFamily=Georgia;fontColor=#FFFFFF;strokeColor=#FFFFFF;" parent="Q-CAjlZwqPiqT_vgyFkI-1" vertex="1">
                    <mxGeometry x="65" width="76" height="40" as="geometry">
                        <mxRectangle width="76" height="40" as="alternateBounds"/>
                    </mxGeometry>
                </mxCell>
                <mxCell id="Q-CAjlZwqPiqT_vgyFkI-4" value="brand_id" style="shape=partialRectangle;html=1;whiteSpace=wrap;connectable=0;overflow=hidden;fillColor=none;top=0;left=0;bottom=0;right=0;pointerEvents=1;labelBackgroundColor=none;labelBorderColor=none;fontFamily=Georgia;fontColor=#FFFFFF;strokeColor=#FFFFFF;" parent="Q-CAjlZwqPiqT_vgyFkI-1" vertex="1">
                    <mxGeometry x="141" width="66" height="40" as="geometry">
                        <mxRectangle width="66" height="40" as="alternateBounds"/>
                    </mxGeometry>
                </mxCell>
                <mxCell id="Q-CAjlZwqPiqT_vgyFkI-5" value="price" style="shape=partialRectangle;html=1;whiteSpace=wrap;connectable=0;overflow=hidden;fillColor=none;top=0;left=0;bottom=0;right=0;pointerEvents=1;labelBackgroundColor=none;labelBorderColor=none;fontFamily=Georgia;fontColor=#FFFFFF;strokeColor=#FFFFFF;" parent="Q-CAjlZwqPiqT_vgyFkI-1" vertex="1">
                    <mxGeometry x="207" width="54" height="40" as="geometry">
                        <mxRectangle width="54" height="40" as="alternateBounds"/>
                    </mxGeometry>
                </mxCell>
                <mxCell id="Q-CAjlZwqPiqT_vgyFkI-6" value="expiration_date" style="shape=partialRectangle;html=1;whiteSpace=wrap;connectable=0;overflow=hidden;fillColor=none;top=0;left=0;bottom=0;right=0;pointerEvents=1;labelBackgroundColor=none;labelBorderColor=none;fontFamily=Georgia;fontColor=#FFFFFF;strokeColor=#FFFFFF;" parent="Q-CAjlZwqPiqT_vgyFkI-1" vertex="1">
                    <mxGeometry x="261" width="99" height="40" as="geometry">
                        <mxRectangle width="99" height="40" as="alternateBounds"/>
                    </mxGeometry>
                </mxCell>
                <mxCell id="Q-CAjlZwqPiqT_vgyFkI-8" value="" style="shape=partialRectangle;collapsible=0;dropTarget=0;pointerEvents=0;fillColor=none;top=0;left=0;bottom=0;right=0;points=[[0,0.5],[1,0.5]];portConstraint=eastwest;labelBackgroundColor=none;labelBorderColor=none;fontFamily=Georgia;fontColor=#000000;strokeColor=#FFFFFF;" parent="Q-CAjlZwqPiqT_vgyFkI-0" vertex="1">
                    <mxGeometry y="80" width="360" height="40" as="geometry"/>
                </mxCell>
                <mxCell id="Q-CAjlZwqPiqT_vgyFkI-9" value="1" style="shape=partialRectangle;html=1;whiteSpace=wrap;connectable=0;overflow=hidden;fillColor=none;top=0;left=0;bottom=0;right=0;pointerEvents=1;labelBackgroundColor=none;labelBorderColor=none;fontFamily=Georgia;fontColor=#FFFFFF;strokeColor=#FFFFFF;" parent="Q-CAjlZwqPiqT_vgyFkI-8" vertex="1">
                    <mxGeometry width="65" height="40" as="geometry">
                        <mxRectangle width="65" height="40" as="alternateBounds"/>
                    </mxGeometry>
                </mxCell>
                <mxCell id="Q-CAjlZwqPiqT_vgyFkI-10" value="&lt;font color=&quot;#ffffff&quot;&gt;Delineador&lt;/font&gt;" style="shape=partialRectangle;html=1;whiteSpace=wrap;connectable=0;overflow=hidden;fillColor=none;top=0;left=0;bottom=0;right=0;pointerEvents=1;labelBackgroundColor=none;labelBorderColor=none;fontFamily=Georgia;fontColor=#000000;strokeColor=#FFFFFF;" parent="Q-CAjlZwqPiqT_vgyFkI-8" vertex="1">
                    <mxGeometry x="65" width="76" height="40" as="geometry">
                        <mxRectangle width="76" height="40" as="alternateBounds"/>
                    </mxGeometry>
                </mxCell>
                <mxCell id="Q-CAjlZwqPiqT_vgyFkI-11" value="&lt;span style=&quot;color: rgb(255 , 255 , 255)&quot;&gt;1&lt;/span&gt;" style="shape=partialRectangle;html=1;whiteSpace=wrap;connectable=0;overflow=hidden;fillColor=none;top=0;left=0;bottom=0;right=0;pointerEvents=1;labelBackgroundColor=none;labelBorderColor=none;fontFamily=Georgia;fontColor=#000000;strokeColor=#FFFFFF;" parent="Q-CAjlZwqPiqT_vgyFkI-8" vertex="1">
                    <mxGeometry x="141" width="66" height="40" as="geometry">
                        <mxRectangle width="66" height="40" as="alternateBounds"/>
                    </mxGeometry>
                </mxCell>
                <mxCell id="Q-CAjlZwqPiqT_vgyFkI-12" value="&lt;font color=&quot;#ffffff&quot;&gt;$80.000&lt;/font&gt;" style="shape=partialRectangle;html=1;whiteSpace=wrap;connectable=0;overflow=hidden;fillColor=none;top=0;left=0;bottom=0;right=0;pointerEvents=1;labelBackgroundColor=none;labelBorderColor=none;fontFamily=Georgia;fontColor=#000000;strokeColor=#FFFFFF;" parent="Q-CAjlZwqPiqT_vgyFkI-8" vertex="1">
                    <mxGeometry x="207" width="54" height="40" as="geometry">
                        <mxRectangle width="54" height="40" as="alternateBounds"/>
                    </mxGeometry>
                </mxCell>
                <mxCell id="Q-CAjlZwqPiqT_vgyFkI-13" value="&lt;font color=&quot;#ffffff&quot;&gt;07/08/2023&lt;/font&gt;" style="shape=partialRectangle;html=1;whiteSpace=wrap;connectable=0;overflow=hidden;fillColor=none;top=0;left=0;bottom=0;right=0;pointerEvents=1;labelBackgroundColor=none;labelBorderColor=none;fontFamily=Georgia;fontColor=#000000;strokeColor=#FFFFFF;" parent="Q-CAjlZwqPiqT_vgyFkI-8" vertex="1">
                    <mxGeometry x="261" width="99" height="40" as="geometry">
                        <mxRectangle width="99" height="40" as="alternateBounds"/>
                    </mxGeometry>
                </mxCell>
                <mxCell id="Q-CAjlZwqPiqT_vgyFkI-15" value="" style="shape=partialRectangle;collapsible=0;dropTarget=0;pointerEvents=0;fillColor=none;top=0;left=0;bottom=0;right=0;points=[[0,0.5],[1,0.5]];portConstraint=eastwest;labelBackgroundColor=none;labelBorderColor=none;fontFamily=Georgia;fontColor=#000000;strokeColor=#FFFFFF;" parent="Q-CAjlZwqPiqT_vgyFkI-0" vertex="1">
                    <mxGeometry y="120" width="360" height="40" as="geometry"/>
                </mxCell>
                <mxCell id="Q-CAjlZwqPiqT_vgyFkI-16" value="2" style="shape=partialRectangle;html=1;whiteSpace=wrap;connectable=0;overflow=hidden;fillColor=none;top=0;left=0;bottom=0;right=0;pointerEvents=1;labelBackgroundColor=none;labelBorderColor=none;fontFamily=Georgia;fontColor=#FFFFFF;strokeColor=#FFFFFF;" parent="Q-CAjlZwqPiqT_vgyFkI-15" vertex="1">
                    <mxGeometry width="65" height="40" as="geometry">
                        <mxRectangle width="65" height="40" as="alternateBounds"/>
                    </mxGeometry>
                </mxCell>
                <mxCell id="Q-CAjlZwqPiqT_vgyFkI-17" value="&lt;font color=&quot;#ffffff&quot;&gt;Labial&lt;/font&gt;" style="shape=partialRectangle;html=1;whiteSpace=wrap;connectable=0;overflow=hidden;fillColor=none;top=0;left=0;bottom=0;right=0;pointerEvents=1;labelBackgroundColor=none;labelBorderColor=none;fontFamily=Georgia;fontColor=#000000;strokeColor=#FFFFFF;" parent="Q-CAjlZwqPiqT_vgyFkI-15" vertex="1">
                    <mxGeometry x="65" width="76" height="40" as="geometry">
                        <mxRectangle width="76" height="40" as="alternateBounds"/>
                    </mxGeometry>
                </mxCell>
                <mxCell id="Q-CAjlZwqPiqT_vgyFkI-18" value="&lt;span style=&quot;color: rgb(255 , 255 , 255)&quot;&gt;1&lt;/span&gt;" style="shape=partialRectangle;html=1;whiteSpace=wrap;connectable=0;overflow=hidden;fillColor=none;top=0;left=0;bottom=0;right=0;pointerEvents=1;labelBackgroundColor=none;labelBorderColor=none;fontFamily=Georgia;fontColor=#000000;strokeColor=#FFFFFF;" parent="Q-CAjlZwqPiqT_vgyFkI-15" vertex="1">
                    <mxGeometry x="141" width="66" height="40" as="geometry">
                        <mxRectangle width="66" height="40" as="alternateBounds"/>
                    </mxGeometry>
                </mxCell>
                <mxCell id="Q-CAjlZwqPiqT_vgyFkI-19" value="&lt;font color=&quot;#ffffff&quot;&gt;$60.000&lt;/font&gt;" style="shape=partialRectangle;html=1;whiteSpace=wrap;connectable=0;overflow=hidden;fillColor=none;top=0;left=0;bottom=0;right=0;pointerEvents=1;labelBackgroundColor=none;labelBorderColor=none;fontFamily=Georgia;fontColor=#000000;strokeColor=#FFFFFF;" parent="Q-CAjlZwqPiqT_vgyFkI-15" vertex="1">
                    <mxGeometry x="207" width="54" height="40" as="geometry">
                        <mxRectangle width="54" height="40" as="alternateBounds"/>
                    </mxGeometry>
                </mxCell>
                <mxCell id="Q-CAjlZwqPiqT_vgyFkI-20" value="&lt;span style=&quot;color: rgb(255 , 255 , 255)&quot;&gt;07/08/2023&lt;/span&gt;" style="shape=partialRectangle;html=1;whiteSpace=wrap;connectable=0;overflow=hidden;fillColor=none;top=0;left=0;bottom=0;right=0;pointerEvents=1;labelBackgroundColor=none;labelBorderColor=none;fontFamily=Georgia;fontColor=#000000;strokeColor=#FFFFFF;" parent="Q-CAjlZwqPiqT_vgyFkI-15" vertex="1">
                    <mxGeometry x="261" width="99" height="40" as="geometry">
                        <mxRectangle width="99" height="40" as="alternateBounds"/>
                    </mxGeometry>
                </mxCell>
                <mxCell id="Q-CAjlZwqPiqT_vgyFkI-22" value="" style="shape=partialRectangle;collapsible=0;dropTarget=0;pointerEvents=0;fillColor=none;top=0;left=0;bottom=0;right=0;points=[[0,0.5],[1,0.5]];portConstraint=eastwest;labelBackgroundColor=none;labelBorderColor=none;fontFamily=Georgia;fontColor=#000000;strokeColor=#FFFFFF;" parent="Q-CAjlZwqPiqT_vgyFkI-0" vertex="1">
                    <mxGeometry y="160" width="360" height="40" as="geometry"/>
                </mxCell>
                <mxCell id="Q-CAjlZwqPiqT_vgyFkI-23" value="3" style="shape=partialRectangle;html=1;whiteSpace=wrap;connectable=0;overflow=hidden;fillColor=none;top=0;left=0;bottom=0;right=0;pointerEvents=1;labelBackgroundColor=none;labelBorderColor=none;fontFamily=Georgia;fontColor=#FFFFFF;strokeColor=#FFFFFF;" parent="Q-CAjlZwqPiqT_vgyFkI-22" vertex="1">
                    <mxGeometry width="65" height="40" as="geometry">
                        <mxRectangle width="65" height="40" as="alternateBounds"/>
                    </mxGeometry>
                </mxCell>
                <mxCell id="Q-CAjlZwqPiqT_vgyFkI-24" value="&lt;font color=&quot;#ffffff&quot;&gt;Bloqueador solar&lt;/font&gt;" style="shape=partialRectangle;html=1;whiteSpace=wrap;connectable=0;overflow=hidden;fillColor=none;top=0;left=0;bottom=0;right=0;pointerEvents=1;labelBackgroundColor=none;labelBorderColor=none;fontFamily=Georgia;fontColor=#000000;strokeColor=#FFFFFF;" parent="Q-CAjlZwqPiqT_vgyFkI-22" vertex="1">
                    <mxGeometry x="65" width="76" height="40" as="geometry">
                        <mxRectangle width="76" height="40" as="alternateBounds"/>
                    </mxGeometry>
                </mxCell>
                <mxCell id="Q-CAjlZwqPiqT_vgyFkI-25" value="&lt;font color=&quot;#ffffff&quot;&gt;2&lt;/font&gt;" style="shape=partialRectangle;html=1;whiteSpace=wrap;connectable=0;overflow=hidden;fillColor=none;top=0;left=0;bottom=0;right=0;pointerEvents=1;labelBackgroundColor=none;labelBorderColor=none;fontFamily=Georgia;fontColor=#000000;strokeColor=#FFFFFF;" parent="Q-CAjlZwqPiqT_vgyFkI-22" vertex="1">
                    <mxGeometry x="141" width="66" height="40" as="geometry">
                        <mxRectangle width="66" height="40" as="alternateBounds"/>
                    </mxGeometry>
                </mxCell>
                <mxCell id="Q-CAjlZwqPiqT_vgyFkI-26" value="&lt;font color=&quot;#ffffff&quot;&gt;$40.000&lt;/font&gt;" style="shape=partialRectangle;html=1;whiteSpace=wrap;connectable=0;overflow=hidden;fillColor=none;top=0;left=0;bottom=0;right=0;pointerEvents=1;labelBackgroundColor=none;labelBorderColor=none;fontFamily=Georgia;fontColor=#000000;strokeColor=#FFFFFF;" parent="Q-CAjlZwqPiqT_vgyFkI-22" vertex="1">
                    <mxGeometry x="207" width="54" height="40" as="geometry">
                        <mxRectangle width="54" height="40" as="alternateBounds"/>
                    </mxGeometry>
                </mxCell>
                <mxCell id="Q-CAjlZwqPiqT_vgyFkI-27" value="&lt;span style=&quot;color: rgb(255 , 255 , 255)&quot;&gt;07/08/2023&lt;/span&gt;" style="shape=partialRectangle;html=1;whiteSpace=wrap;connectable=0;overflow=hidden;fillColor=none;top=0;left=0;bottom=0;right=0;pointerEvents=1;labelBackgroundColor=none;labelBorderColor=none;fontFamily=Georgia;fontColor=#000000;strokeColor=#FFFFFF;" parent="Q-CAjlZwqPiqT_vgyFkI-22" vertex="1">
                    <mxGeometry x="261" width="99" height="40" as="geometry">
                        <mxRectangle width="99" height="40" as="alternateBounds"/>
                    </mxGeometry>
                </mxCell>
                <mxCell id="Q-CAjlZwqPiqT_vgyFkI-29" value="" style="shape=partialRectangle;collapsible=0;dropTarget=0;pointerEvents=0;fillColor=none;top=0;left=0;bottom=0;right=0;points=[[0,0.5],[1,0.5]];portConstraint=eastwest;labelBackgroundColor=none;labelBorderColor=none;fontFamily=Georgia;fontColor=#000000;strokeColor=#FFFFFF;" parent="Q-CAjlZwqPiqT_vgyFkI-0" vertex="1">
                    <mxGeometry y="200" width="360" height="40" as="geometry"/>
                </mxCell>
                <mxCell id="Q-CAjlZwqPiqT_vgyFkI-30" value="4" style="shape=partialRectangle;html=1;whiteSpace=wrap;connectable=0;overflow=hidden;fillColor=none;top=0;left=0;bottom=0;right=0;pointerEvents=1;labelBackgroundColor=none;labelBorderColor=none;fontFamily=Georgia;fontColor=#FFFFFF;strokeColor=#FFFFFF;" parent="Q-CAjlZwqPiqT_vgyFkI-29" vertex="1">
                    <mxGeometry width="65" height="40" as="geometry">
                        <mxRectangle width="65" height="40" as="alternateBounds"/>
                    </mxGeometry>
                </mxCell>
                <mxCell id="Q-CAjlZwqPiqT_vgyFkI-31" value="&lt;font color=&quot;#ffffff&quot;&gt;Crema hidratante&lt;/font&gt;" style="shape=partialRectangle;html=1;whiteSpace=wrap;connectable=0;overflow=hidden;fillColor=none;top=0;left=0;bottom=0;right=0;pointerEvents=1;labelBackgroundColor=none;labelBorderColor=none;fontFamily=Georgia;fontColor=#000000;strokeColor=#FFFFFF;" parent="Q-CAjlZwqPiqT_vgyFkI-29" vertex="1">
                    <mxGeometry x="65" width="76" height="40" as="geometry">
                        <mxRectangle width="76" height="40" as="alternateBounds"/>
                    </mxGeometry>
                </mxCell>
                <mxCell id="Q-CAjlZwqPiqT_vgyFkI-32" value="&lt;span style=&quot;color: rgb(255 , 255 , 255)&quot;&gt;2&lt;/span&gt;" style="shape=partialRectangle;html=1;whiteSpace=wrap;connectable=0;overflow=hidden;fillColor=none;top=0;left=0;bottom=0;right=0;pointerEvents=1;labelBackgroundColor=none;labelBorderColor=none;fontFamily=Georgia;fontColor=#000000;strokeColor=#FFFFFF;" parent="Q-CAjlZwqPiqT_vgyFkI-29" vertex="1">
                    <mxGeometry x="141" width="66" height="40" as="geometry">
                        <mxRectangle width="66" height="40" as="alternateBounds"/>
                    </mxGeometry>
                </mxCell>
                <mxCell id="Q-CAjlZwqPiqT_vgyFkI-33" value="&lt;font color=&quot;#ffffff&quot;&gt;$30.000&lt;/font&gt;" style="shape=partialRectangle;html=1;whiteSpace=wrap;connectable=0;overflow=hidden;fillColor=none;top=0;left=0;bottom=0;right=0;pointerEvents=1;labelBackgroundColor=none;labelBorderColor=none;fontFamily=Georgia;fontColor=#000000;strokeColor=#FFFFFF;" parent="Q-CAjlZwqPiqT_vgyFkI-29" vertex="1">
                    <mxGeometry x="207" width="54" height="40" as="geometry">
                        <mxRectangle width="54" height="40" as="alternateBounds"/>
                    </mxGeometry>
                </mxCell>
                <mxCell id="Q-CAjlZwqPiqT_vgyFkI-34" value="&lt;span style=&quot;color: rgb(255 , 255 , 255)&quot;&gt;07/08/2023&lt;/span&gt;" style="shape=partialRectangle;html=1;whiteSpace=wrap;connectable=0;overflow=hidden;fillColor=none;top=0;left=0;bottom=0;right=0;pointerEvents=1;labelBackgroundColor=none;labelBorderColor=none;fontFamily=Georgia;fontColor=#000000;strokeColor=#FFFFFF;" parent="Q-CAjlZwqPiqT_vgyFkI-29" vertex="1">
                    <mxGeometry x="261" width="99" height="40" as="geometry">
                        <mxRectangle width="99" height="40" as="alternateBounds"/>
                    </mxGeometry>
                </mxCell>
                <mxCell id="48YY7NUvdLGIzVee8PG2-0" value="features_products" style="shape=table;startSize=40;container=1;collapsible=0;childLayout=tableLayout;labelBackgroundColor=none;labelBorderColor=none;fontFamily=Georgia;fontColor=#000000;strokeColor=#FFFFFF;fillColor=#FF8000;gradientColor=#FFFF00;gradientDirection=east;swimlaneFillColor=#000000;fontStyle=3" parent="3rnbf16T3xSzr0oEW06G-1" vertex="1">
                    <mxGeometry x="520" y="40" width="200" height="319" as="geometry"/>
                </mxCell>
                <mxCell id="48YY7NUvdLGIzVee8PG2-1" value="" style="shape=partialRectangle;collapsible=0;dropTarget=0;pointerEvents=0;fillColor=none;top=0;left=0;bottom=0;right=0;points=[[0,0.5],[1,0.5]];portConstraint=eastwest;labelBackgroundColor=none;labelBorderColor=none;fontFamily=Georgia;fontColor=#000000;strokeColor=#FFFFFF;" parent="48YY7NUvdLGIzVee8PG2-0" vertex="1">
                    <mxGeometry y="40" width="200" height="39" as="geometry"/>
                </mxCell>
                <mxCell id="48YY7NUvdLGIzVee8PG2-2" value="&lt;font color=&quot;#ffffff&quot;&gt;id&lt;/font&gt;" style="shape=partialRectangle;html=1;whiteSpace=wrap;connectable=0;overflow=hidden;fillColor=none;top=0;left=0;bottom=0;right=0;pointerEvents=1;labelBackgroundColor=none;labelBorderColor=none;fontFamily=Georgia;fontColor=#000000;strokeColor=#FFFFFF;" parent="48YY7NUvdLGIzVee8PG2-1" vertex="1">
                    <mxGeometry width="40" height="39" as="geometry">
                        <mxRectangle width="40" height="39" as="alternateBounds"/>
                    </mxGeometry>
                </mxCell>
                <mxCell id="48YY7NUvdLGIzVee8PG2-3" value="&lt;span&gt;product_id&lt;/span&gt;" style="shape=partialRectangle;html=1;whiteSpace=wrap;connectable=0;overflow=hidden;fillColor=none;top=0;left=0;bottom=0;right=0;pointerEvents=1;labelBackgroundColor=none;labelBorderColor=none;fontFamily=Georgia;fontColor=#FFFFFF;strokeColor=#FFFFFF;" parent="48YY7NUvdLGIzVee8PG2-1" vertex="1">
                    <mxGeometry x="40" width="80" height="39" as="geometry">
                        <mxRectangle width="80" height="39" as="alternateBounds"/>
                    </mxGeometry>
                </mxCell>
                <mxCell id="48YY7NUvdLGIzVee8PG2-4" value="feature_id" style="shape=partialRectangle;html=1;whiteSpace=wrap;connectable=0;overflow=hidden;fillColor=none;top=0;left=0;bottom=0;right=0;pointerEvents=1;labelBackgroundColor=none;labelBorderColor=none;fontFamily=Georgia;fontColor=#FFFFFF;strokeColor=#FFFFFF;" parent="48YY7NUvdLGIzVee8PG2-1" vertex="1">
                    <mxGeometry x="120" width="80" height="39" as="geometry">
                        <mxRectangle width="80" height="39" as="alternateBounds"/>
                    </mxGeometry>
                </mxCell>
                <mxCell id="48YY7NUvdLGIzVee8PG2-13" value="" style="shape=partialRectangle;collapsible=0;dropTarget=0;pointerEvents=0;fillColor=none;top=0;left=0;bottom=0;right=0;points=[[0,0.5],[1,0.5]];portConstraint=eastwest;labelBackgroundColor=none;labelBorderColor=none;fontFamily=Georgia;fontColor=#000000;strokeColor=#FFFFFF;" parent="48YY7NUvdLGIzVee8PG2-0" vertex="1">
                    <mxGeometry y="79" width="200" height="41" as="geometry"/>
                </mxCell>
                <mxCell id="48YY7NUvdLGIzVee8PG2-14" value="&lt;font color=&quot;#ffffff&quot;&gt;1&lt;/font&gt;" style="shape=partialRectangle;html=1;whiteSpace=wrap;connectable=0;overflow=hidden;fillColor=none;top=0;left=0;bottom=0;right=0;pointerEvents=1;labelBackgroundColor=none;labelBorderColor=none;fontFamily=Georgia;fontColor=#000000;strokeColor=#FFFFFF;" parent="48YY7NUvdLGIzVee8PG2-13" vertex="1">
                    <mxGeometry width="40" height="41" as="geometry">
                        <mxRectangle width="40" height="41" as="alternateBounds"/>
                    </mxGeometry>
                </mxCell>
                <mxCell id="48YY7NUvdLGIzVee8PG2-15" value="&lt;font color=&quot;#ffffff&quot;&gt;1&lt;/font&gt;" style="shape=partialRectangle;html=1;whiteSpace=wrap;connectable=0;overflow=hidden;fillColor=none;top=0;left=0;bottom=0;right=0;pointerEvents=1;labelBackgroundColor=none;labelBorderColor=none;fontFamily=Georgia;fontColor=#000000;strokeColor=#FFFFFF;" parent="48YY7NUvdLGIzVee8PG2-13" vertex="1">
                    <mxGeometry x="40" width="80" height="41" as="geometry">
                        <mxRectangle width="80" height="41" as="alternateBounds"/>
                    </mxGeometry>
                </mxCell>
                <mxCell id="48YY7NUvdLGIzVee8PG2-16" value="&lt;font color=&quot;#ffffff&quot;&gt;2&lt;/font&gt;" style="shape=partialRectangle;html=1;whiteSpace=wrap;connectable=0;overflow=hidden;fillColor=none;top=0;left=0;bottom=0;right=0;pointerEvents=1;labelBackgroundColor=none;labelBorderColor=none;fontFamily=Georgia;fontColor=#000000;strokeColor=#FFFFFF;" parent="48YY7NUvdLGIzVee8PG2-13" vertex="1">
                    <mxGeometry x="120" width="80" height="41" as="geometry">
                        <mxRectangle width="80" height="41" as="alternateBounds"/>
                    </mxGeometry>
                </mxCell>
                <mxCell id="48YY7NUvdLGIzVee8PG2-25" value="" style="shape=partialRectangle;collapsible=0;dropTarget=0;pointerEvents=0;fillColor=none;top=0;left=0;bottom=0;right=0;points=[[0,0.5],[1,0.5]];portConstraint=eastwest;labelBackgroundColor=none;labelBorderColor=none;fontFamily=Georgia;fontColor=#000000;strokeColor=#FFFFFF;" parent="48YY7NUvdLGIzVee8PG2-0" vertex="1">
                    <mxGeometry y="120" width="200" height="40" as="geometry"/>
                </mxCell>
                <mxCell id="48YY7NUvdLGIzVee8PG2-26" value="&lt;font color=&quot;#ffffff&quot;&gt;2&lt;/font&gt;" style="shape=partialRectangle;html=1;whiteSpace=wrap;connectable=0;overflow=hidden;fillColor=none;top=0;left=0;bottom=0;right=0;pointerEvents=1;labelBackgroundColor=none;labelBorderColor=none;fontFamily=Georgia;fontColor=#000000;strokeColor=#FFFFFF;" parent="48YY7NUvdLGIzVee8PG2-25" vertex="1">
                    <mxGeometry width="40" height="40" as="geometry">
                        <mxRectangle width="40" height="40" as="alternateBounds"/>
                    </mxGeometry>
                </mxCell>
                <mxCell id="48YY7NUvdLGIzVee8PG2-27" value="&lt;font color=&quot;#ffffff&quot;&gt;2&lt;/font&gt;" style="shape=partialRectangle;html=1;whiteSpace=wrap;connectable=0;overflow=hidden;fillColor=none;top=0;left=0;bottom=0;right=0;pointerEvents=1;labelBackgroundColor=none;labelBorderColor=none;fontFamily=Georgia;fontColor=#000000;strokeColor=#FFFFFF;" parent="48YY7NUvdLGIzVee8PG2-25" vertex="1">
                    <mxGeometry x="40" width="80" height="40" as="geometry">
                        <mxRectangle width="80" height="40" as="alternateBounds"/>
                    </mxGeometry>
                </mxCell>
                <mxCell id="48YY7NUvdLGIzVee8PG2-28" value="&lt;font color=&quot;#ffffff&quot;&gt;1&lt;/font&gt;" style="shape=partialRectangle;html=1;whiteSpace=wrap;connectable=0;overflow=hidden;fillColor=none;top=0;left=0;bottom=0;right=0;pointerEvents=1;labelBackgroundColor=none;labelBorderColor=none;fontFamily=Georgia;fontColor=#000000;strokeColor=#FFFFFF;" parent="48YY7NUvdLGIzVee8PG2-25" vertex="1">
                    <mxGeometry x="120" width="80" height="40" as="geometry">
                        <mxRectangle width="80" height="40" as="alternateBounds"/>
                    </mxGeometry>
                </mxCell>
                <mxCell id="48YY7NUvdLGIzVee8PG2-37" value="" style="shape=partialRectangle;collapsible=0;dropTarget=0;pointerEvents=0;fillColor=none;top=0;left=0;bottom=0;right=0;points=[[0,0.5],[1,0.5]];portConstraint=eastwest;labelBackgroundColor=none;labelBorderColor=none;fontFamily=Georgia;fontColor=#000000;strokeColor=#FFFFFF;" parent="48YY7NUvdLGIzVee8PG2-0" vertex="1">
                    <mxGeometry y="160" width="200" height="40" as="geometry"/>
                </mxCell>
                <mxCell id="48YY7NUvdLGIzVee8PG2-38" value="&lt;font color=&quot;#ffffff&quot;&gt;3&lt;/font&gt;" style="shape=partialRectangle;html=1;whiteSpace=wrap;connectable=0;overflow=hidden;fillColor=none;top=0;left=0;bottom=0;right=0;pointerEvents=1;labelBackgroundColor=none;labelBorderColor=none;fontFamily=Georgia;fontColor=#000000;strokeColor=#FFFFFF;" parent="48YY7NUvdLGIzVee8PG2-37" vertex="1">
                    <mxGeometry width="40" height="40" as="geometry">
                        <mxRectangle width="40" height="40" as="alternateBounds"/>
                    </mxGeometry>
                </mxCell>
                <mxCell id="48YY7NUvdLGIzVee8PG2-39" value="&lt;font color=&quot;#ffffff&quot;&gt;2&lt;/font&gt;" style="shape=partialRectangle;html=1;whiteSpace=wrap;connectable=0;overflow=hidden;fillColor=none;top=0;left=0;bottom=0;right=0;pointerEvents=1;labelBackgroundColor=none;labelBorderColor=none;fontFamily=Georgia;fontColor=#000000;strokeColor=#FFFFFF;" parent="48YY7NUvdLGIzVee8PG2-37" vertex="1">
                    <mxGeometry x="40" width="80" height="40" as="geometry">
                        <mxRectangle width="80" height="40" as="alternateBounds"/>
                    </mxGeometry>
                </mxCell>
                <mxCell id="48YY7NUvdLGIzVee8PG2-40" value="&lt;font color=&quot;#ffffff&quot;&gt;2&lt;/font&gt;" style="shape=partialRectangle;html=1;whiteSpace=wrap;connectable=0;overflow=hidden;fillColor=none;top=0;left=0;bottom=0;right=0;pointerEvents=1;labelBackgroundColor=none;labelBorderColor=none;fontFamily=Georgia;fontColor=#000000;strokeColor=#FFFFFF;" parent="48YY7NUvdLGIzVee8PG2-37" vertex="1">
                    <mxGeometry x="120" width="80" height="40" as="geometry">
                        <mxRectangle width="80" height="40" as="alternateBounds"/>
                    </mxGeometry>
                </mxCell>
                <mxCell id="Xlo80ET2i1K8C5zMbV-K-12" style="shape=partialRectangle;collapsible=0;dropTarget=0;pointerEvents=0;fillColor=none;top=0;left=0;bottom=0;right=0;points=[[0,0.5],[1,0.5]];portConstraint=eastwest;labelBackgroundColor=none;labelBorderColor=none;fontFamily=Georgia;fontColor=#000000;strokeColor=#FFFFFF;" parent="48YY7NUvdLGIzVee8PG2-0" vertex="1">
                    <mxGeometry y="200" width="200" height="40" as="geometry"/>
                </mxCell>
                <mxCell id="Xlo80ET2i1K8C5zMbV-K-13" value="&lt;font color=&quot;#ffffff&quot;&gt;4&lt;/font&gt;" style="shape=partialRectangle;html=1;whiteSpace=wrap;connectable=0;overflow=hidden;fillColor=none;top=0;left=0;bottom=0;right=0;pointerEvents=1;labelBackgroundColor=none;labelBorderColor=none;fontFamily=Georgia;fontColor=#000000;strokeColor=#FFFFFF;" parent="Xlo80ET2i1K8C5zMbV-K-12" vertex="1">
                    <mxGeometry width="40" height="40" as="geometry">
                        <mxRectangle width="40" height="40" as="alternateBounds"/>
                    </mxGeometry>
                </mxCell>
                <mxCell id="Xlo80ET2i1K8C5zMbV-K-14" value="&lt;font color=&quot;#ffffff&quot;&gt;3&lt;/font&gt;" style="shape=partialRectangle;html=1;whiteSpace=wrap;connectable=0;overflow=hidden;fillColor=none;top=0;left=0;bottom=0;right=0;pointerEvents=1;labelBackgroundColor=none;labelBorderColor=none;fontFamily=Georgia;fontColor=#000000;strokeColor=#FFFFFF;" parent="Xlo80ET2i1K8C5zMbV-K-12" vertex="1">
                    <mxGeometry x="40" width="80" height="40" as="geometry">
                        <mxRectangle width="80" height="40" as="alternateBounds"/>
                    </mxGeometry>
                </mxCell>
                <mxCell id="Xlo80ET2i1K8C5zMbV-K-15" value="&lt;font color=&quot;#ffffff&quot;&gt;1&lt;/font&gt;" style="shape=partialRectangle;html=1;whiteSpace=wrap;connectable=0;overflow=hidden;fillColor=none;top=0;left=0;bottom=0;right=0;pointerEvents=1;labelBackgroundColor=none;labelBorderColor=none;fontFamily=Georgia;fontColor=#000000;strokeColor=#FFFFFF;" parent="Xlo80ET2i1K8C5zMbV-K-12" vertex="1">
                    <mxGeometry x="120" width="80" height="40" as="geometry">
                        <mxRectangle width="80" height="40" as="alternateBounds"/>
                    </mxGeometry>
                </mxCell>
                <mxCell id="Xlo80ET2i1K8C5zMbV-K-0" style="shape=partialRectangle;collapsible=0;dropTarget=0;pointerEvents=0;fillColor=none;top=0;left=0;bottom=0;right=0;points=[[0,0.5],[1,0.5]];portConstraint=eastwest;labelBackgroundColor=none;labelBorderColor=none;fontFamily=Georgia;fontColor=#000000;strokeColor=#FFFFFF;" parent="48YY7NUvdLGIzVee8PG2-0" vertex="1">
                    <mxGeometry y="240" width="200" height="40" as="geometry"/>
                </mxCell>
                <mxCell id="Xlo80ET2i1K8C5zMbV-K-1" value="&lt;font color=&quot;#ffffff&quot;&gt;7&lt;/font&gt;" style="shape=partialRectangle;html=1;whiteSpace=wrap;connectable=0;overflow=hidden;fillColor=none;top=0;left=0;bottom=0;right=0;pointerEvents=1;labelBackgroundColor=none;labelBorderColor=none;fontFamily=Georgia;fontColor=#000000;strokeColor=#FFFFFF;" parent="Xlo80ET2i1K8C5zMbV-K-0" vertex="1">
                    <mxGeometry width="40" height="40" as="geometry">
                        <mxRectangle width="40" height="40" as="alternateBounds"/>
                    </mxGeometry>
                </mxCell>
                <mxCell id="Xlo80ET2i1K8C5zMbV-K-2" value="&lt;font color=&quot;#ffffff&quot;&gt;3&lt;/font&gt;" style="shape=partialRectangle;html=1;whiteSpace=wrap;connectable=0;overflow=hidden;fillColor=none;top=0;left=0;bottom=0;right=0;pointerEvents=1;labelBackgroundColor=none;labelBorderColor=none;fontFamily=Georgia;fontColor=#000000;strokeColor=#FFFFFF;" parent="Xlo80ET2i1K8C5zMbV-K-0" vertex="1">
                    <mxGeometry x="40" width="80" height="40" as="geometry">
                        <mxRectangle width="80" height="40" as="alternateBounds"/>
                    </mxGeometry>
                </mxCell>
                <mxCell id="Xlo80ET2i1K8C5zMbV-K-3" value="&lt;font color=&quot;#ffffff&quot;&gt;2&lt;/font&gt;" style="shape=partialRectangle;html=1;whiteSpace=wrap;connectable=0;overflow=hidden;fillColor=none;top=0;left=0;bottom=0;right=0;pointerEvents=1;labelBackgroundColor=none;labelBorderColor=none;fontFamily=Georgia;fontColor=#000000;strokeColor=#FFFFFF;" parent="Xlo80ET2i1K8C5zMbV-K-0" vertex="1">
                    <mxGeometry x="120" width="80" height="40" as="geometry">
                        <mxRectangle width="80" height="40" as="alternateBounds"/>
                    </mxGeometry>
                </mxCell>
                <mxCell id="DbqAJ1fa1ZZxMGJjxBze-0" style="shape=partialRectangle;collapsible=0;dropTarget=0;pointerEvents=0;fillColor=none;top=0;left=0;bottom=0;right=0;points=[[0,0.5],[1,0.5]];portConstraint=eastwest;labelBackgroundColor=none;labelBorderColor=none;fontFamily=Georgia;fontColor=#000000;strokeColor=#FFFFFF;" parent="48YY7NUvdLGIzVee8PG2-0" vertex="1">
                    <mxGeometry y="280" width="200" height="39" as="geometry"/>
                </mxCell>
                <mxCell id="DbqAJ1fa1ZZxMGJjxBze-1" value="&lt;font color=&quot;#ffffff&quot;&gt;8&lt;/font&gt;" style="shape=partialRectangle;html=1;whiteSpace=wrap;connectable=0;overflow=hidden;fillColor=none;top=0;left=0;bottom=0;right=0;pointerEvents=1;labelBackgroundColor=none;labelBorderColor=none;fontFamily=Georgia;fontColor=#000000;strokeColor=#FFFFFF;" parent="DbqAJ1fa1ZZxMGJjxBze-0" vertex="1">
                    <mxGeometry width="40" height="39" as="geometry">
                        <mxRectangle width="40" height="39" as="alternateBounds"/>
                    </mxGeometry>
                </mxCell>
                <mxCell id="DbqAJ1fa1ZZxMGJjxBze-2" value="&lt;font color=&quot;#ffffff&quot;&gt;4&lt;/font&gt;" style="shape=partialRectangle;html=1;whiteSpace=wrap;connectable=0;overflow=hidden;fillColor=none;top=0;left=0;bottom=0;right=0;pointerEvents=1;labelBackgroundColor=none;labelBorderColor=none;fontFamily=Georgia;fontColor=#000000;strokeColor=#FFFFFF;" parent="DbqAJ1fa1ZZxMGJjxBze-0" vertex="1">
                    <mxGeometry x="40" width="80" height="39" as="geometry">
                        <mxRectangle width="80" height="39" as="alternateBounds"/>
                    </mxGeometry>
                </mxCell>
                <mxCell id="DbqAJ1fa1ZZxMGJjxBze-3" value="&lt;font color=&quot;#ffffff&quot;&gt;1&lt;/font&gt;" style="shape=partialRectangle;html=1;whiteSpace=wrap;connectable=0;overflow=hidden;fillColor=none;top=0;left=0;bottom=0;right=0;pointerEvents=1;labelBackgroundColor=none;labelBorderColor=none;fontFamily=Georgia;fontColor=#000000;strokeColor=#FFFFFF;" parent="DbqAJ1fa1ZZxMGJjxBze-0" vertex="1">
                    <mxGeometry x="120" width="80" height="39" as="geometry">
                        <mxRectangle width="80" height="39" as="alternateBounds"/>
                    </mxGeometry>
                </mxCell>
                <mxCell id="Mhmrw01F4ZJIjOuaVmAV-185" value="features" style="shape=table;startSize=40;container=1;collapsible=0;childLayout=tableLayout;labelBackgroundColor=none;labelBorderColor=none;fontFamily=Georgia;fontColor=#000000;strokeColor=#FFFFFF;fillColor=#FF8000;gradientColor=#FFCC99;gradientDirection=north;shadow=1;swimlaneFillColor=#000000;fontStyle=3" parent="3rnbf16T3xSzr0oEW06G-1" vertex="1">
                    <mxGeometry x="240" y="40" width="200" height="160" as="geometry"/>
                </mxCell>
                <mxCell id="Mhmrw01F4ZJIjOuaVmAV-186" value="" style="shape=partialRectangle;collapsible=0;dropTarget=0;pointerEvents=0;fillColor=none;top=0;left=0;bottom=0;right=0;points=[[0,0.5],[1,0.5]];portConstraint=eastwest;labelBackgroundColor=#333333;labelBorderColor=none;fontFamily=Georgia;fontColor=#FFFFFF;strokeColor=#FFFFFF;" parent="Mhmrw01F4ZJIjOuaVmAV-185" vertex="1">
                    <mxGeometry y="40" width="200" height="40" as="geometry"/>
                </mxCell>
                <mxCell id="Mhmrw01F4ZJIjOuaVmAV-187" value="&lt;span style=&quot;background-color: rgb(0 , 0 , 0)&quot;&gt;id&lt;/span&gt;" style="shape=partialRectangle;html=1;whiteSpace=wrap;connectable=0;overflow=hidden;fillColor=none;top=0;left=0;bottom=0;right=0;pointerEvents=1;labelBackgroundColor=#333333;labelBorderColor=none;fontFamily=Georgia;fontColor=#FFFFFF;strokeColor=#FFFFFF;" parent="Mhmrw01F4ZJIjOuaVmAV-186" vertex="1">
                    <mxGeometry width="60" height="40" as="geometry">
                        <mxRectangle width="60" height="40" as="alternateBounds"/>
                    </mxGeometry>
                </mxCell>
                <mxCell id="Mhmrw01F4ZJIjOuaVmAV-188" value="&lt;span style=&quot;background-color: rgb(0 , 0 , 0)&quot;&gt;name&lt;/span&gt;" style="shape=partialRectangle;html=1;whiteSpace=wrap;connectable=0;overflow=hidden;fillColor=none;top=0;left=0;bottom=0;right=0;pointerEvents=1;labelBackgroundColor=#333333;labelBorderColor=none;fontFamily=Georgia;fontColor=#FFFFFF;strokeColor=#FFFFFF;" parent="Mhmrw01F4ZJIjOuaVmAV-186" vertex="1">
                    <mxGeometry x="60" width="140" height="40" as="geometry">
                        <mxRectangle width="140" height="40" as="alternateBounds"/>
                    </mxGeometry>
                </mxCell>
                <mxCell id="Mhmrw01F4ZJIjOuaVmAV-191" value="" style="shape=partialRectangle;collapsible=0;dropTarget=0;pointerEvents=0;fillColor=none;top=0;left=0;bottom=0;right=0;points=[[0,0.5],[1,0.5]];portConstraint=eastwest;labelBackgroundColor=#333333;labelBorderColor=none;fontFamily=Georgia;fontColor=#FFFFFF;strokeColor=#FFFFFF;" parent="Mhmrw01F4ZJIjOuaVmAV-185" vertex="1">
                    <mxGeometry y="80" width="200" height="40" as="geometry"/>
                </mxCell>
                <mxCell id="Mhmrw01F4ZJIjOuaVmAV-192" value="&lt;span style=&quot;background-color: rgb(0 , 0 , 0)&quot;&gt;1&lt;/span&gt;" style="shape=partialRectangle;html=1;whiteSpace=wrap;connectable=0;overflow=hidden;fillColor=none;top=0;left=0;bottom=0;right=0;pointerEvents=1;labelBackgroundColor=#333333;labelBorderColor=none;fontFamily=Georgia;fontColor=#FFFFFF;strokeColor=#FFFFFF;" parent="Mhmrw01F4ZJIjOuaVmAV-191" vertex="1">
                    <mxGeometry width="60" height="40" as="geometry">
                        <mxRectangle width="60" height="40" as="alternateBounds"/>
                    </mxGeometry>
                </mxCell>
                <mxCell id="Mhmrw01F4ZJIjOuaVmAV-193" value="&lt;span style=&quot;background-color: rgb(0 , 0 , 0)&quot;&gt;Hidratante&lt;/span&gt;" style="shape=partialRectangle;html=1;whiteSpace=wrap;connectable=0;overflow=hidden;fillColor=none;top=0;left=0;bottom=0;right=0;pointerEvents=1;labelBackgroundColor=#333333;labelBorderColor=none;fontFamily=Georgia;fontColor=#FFFFFF;strokeColor=#FFFFFF;" parent="Mhmrw01F4ZJIjOuaVmAV-191" vertex="1">
                    <mxGeometry x="60" width="140" height="40" as="geometry">
                        <mxRectangle width="140" height="40" as="alternateBounds"/>
                    </mxGeometry>
                </mxCell>
                <mxCell id="Mhmrw01F4ZJIjOuaVmAV-196" value="" style="shape=partialRectangle;collapsible=0;dropTarget=0;pointerEvents=0;fillColor=none;top=0;left=0;bottom=0;right=0;points=[[0,0.5],[1,0.5]];portConstraint=eastwest;labelBackgroundColor=#333333;labelBorderColor=none;fontFamily=Georgia;fontColor=#FFFFFF;strokeColor=#FFFFFF;" parent="Mhmrw01F4ZJIjOuaVmAV-185" vertex="1">
                    <mxGeometry y="120" width="200" height="40" as="geometry"/>
                </mxCell>
                <mxCell id="Mhmrw01F4ZJIjOuaVmAV-197" value="&lt;span style=&quot;background-color: rgb(0 , 0 , 0)&quot;&gt;2&lt;/span&gt;" style="shape=partialRectangle;html=1;whiteSpace=wrap;connectable=0;overflow=hidden;fillColor=none;top=0;left=0;bottom=0;right=0;pointerEvents=1;labelBackgroundColor=#333333;labelBorderColor=none;fontFamily=Georgia;fontColor=#FFFFFF;strokeColor=#FFFFFF;" parent="Mhmrw01F4ZJIjOuaVmAV-196" vertex="1">
                    <mxGeometry width="60" height="40" as="geometry">
                        <mxRectangle width="60" height="40" as="alternateBounds"/>
                    </mxGeometry>
                </mxCell>
                <mxCell id="Mhmrw01F4ZJIjOuaVmAV-198" value="&lt;span style=&quot;background-color: rgb(0 , 0 , 0)&quot;&gt;A prueba de agua&lt;/span&gt;" style="shape=partialRectangle;html=1;whiteSpace=wrap;connectable=0;overflow=hidden;fillColor=none;top=0;left=0;bottom=0;right=0;pointerEvents=1;labelBackgroundColor=#333333;labelBorderColor=none;fontFamily=Georgia;fontColor=#FFFFFF;strokeColor=#FFFFFF;" parent="Mhmrw01F4ZJIjOuaVmAV-196" vertex="1">
                    <mxGeometry x="60" width="140" height="40" as="geometry">
                        <mxRectangle width="140" height="40" as="alternateBounds"/>
                    </mxGeometry>
                </mxCell>
                <mxCell id="M5_kZwa7eBHXgSGkaNah-0" style="edgeStyle=none;html=1;exitX=1;exitY=0.5;exitDx=0;exitDy=0;entryX=0;entryY=0.5;entryDx=0;entryDy=0;endArrow=ERmany;endFill=0;" parent="3rnbf16T3xSzr0oEW06G-1" source="Mhmrw01F4ZJIjOuaVmAV-191" target="48YY7NUvdLGIzVee8PG2-13" edge="1">
                    <mxGeometry relative="1" as="geometry"/>
                </mxCell>
                <mxCell id="M5_kZwa7eBHXgSGkaNah-1" style="edgeStyle=none;html=1;exitX=0;exitY=0.5;exitDx=0;exitDy=0;entryX=1;entryY=0.5;entryDx=0;entryDy=0;endArrow=ERmany;endFill=0;" parent="3rnbf16T3xSzr0oEW06G-1" source="Q-CAjlZwqPiqT_vgyFkI-8" target="48YY7NUvdLGIzVee8PG2-13" edge="1">
                    <mxGeometry relative="1" as="geometry"/>
                </mxCell>
                <mxCell id="8IiVpp9iAI5D9PUYvPYm-0" value="users" style="shape=table;startSize=40;container=1;collapsible=0;childLayout=tableLayout;gradientColor=#FF3399;fillColor=#FF99CC;fontFamily=Georgia;fontColor=#000000;fontStyle=3;labelBackgroundColor=none;swimlaneFillColor=#000000;strokeColor=#FF99CC;" parent="3rnbf16T3xSzr0oEW06G-1" vertex="1">
                    <mxGeometry x="2000" y="40" width="530" height="240" as="geometry"/>
                </mxCell>
                <mxCell id="8IiVpp9iAI5D9PUYvPYm-1" value="" style="shape=partialRectangle;collapsible=0;dropTarget=0;pointerEvents=0;fillColor=none;top=0;left=0;bottom=0;right=0;points=[[0,0.5],[1,0.5]];portConstraint=eastwest;" parent="8IiVpp9iAI5D9PUYvPYm-0" vertex="1">
                    <mxGeometry y="40" width="530" height="40" as="geometry"/>
                </mxCell>
                <mxCell id="8IiVpp9iAI5D9PUYvPYm-2" value="id" style="shape=partialRectangle;html=1;whiteSpace=wrap;connectable=0;overflow=hidden;fillColor=none;top=0;left=0;bottom=0;right=0;pointerEvents=1;" parent="8IiVpp9iAI5D9PUYvPYm-1" vertex="1">
                    <mxGeometry width="40" height="40" as="geometry">
                        <mxRectangle width="40" height="40" as="alternateBounds"/>
                    </mxGeometry>
                </mxCell>
                <mxCell id="8IiVpp9iAI5D9PUYvPYm-3" value="fullname" style="shape=partialRectangle;html=1;whiteSpace=wrap;connectable=0;overflow=hidden;fillColor=none;top=0;left=0;bottom=0;right=0;pointerEvents=1;" parent="8IiVpp9iAI5D9PUYvPYm-1" vertex="1">
                    <mxGeometry x="40" width="120" height="40" as="geometry">
                        <mxRectangle width="120" height="40" as="alternateBounds"/>
                    </mxGeometry>
                </mxCell>
                <mxCell id="8IiVpp9iAI5D9PUYvPYm-4" value="document_number" style="shape=partialRectangle;html=1;whiteSpace=wrap;connectable=0;overflow=hidden;fillColor=none;top=0;left=0;bottom=0;right=0;pointerEvents=1;" parent="8IiVpp9iAI5D9PUYvPYm-1" vertex="1">
                    <mxGeometry x="160" width="120" height="40" as="geometry">
                        <mxRectangle width="120" height="40" as="alternateBounds"/>
                    </mxGeometry>
                </mxCell>
                <mxCell id="8IiVpp9iAI5D9PUYvPYm-5" value="document_type" style="shape=partialRectangle;html=1;whiteSpace=wrap;connectable=0;overflow=hidden;fillColor=none;top=0;left=0;bottom=0;right=0;pointerEvents=1;" parent="8IiVpp9iAI5D9PUYvPYm-1" vertex="1">
                    <mxGeometry x="280" width="120" height="40" as="geometry">
                        <mxRectangle width="120" height="40" as="alternateBounds"/>
                    </mxGeometry>
                </mxCell>
                <mxCell id="8IiVpp9iAI5D9PUYvPYm-6" value="phone" style="shape=partialRectangle;html=1;whiteSpace=wrap;connectable=0;overflow=hidden;fillColor=none;top=0;left=0;bottom=0;right=0;pointerEvents=1;" parent="8IiVpp9iAI5D9PUYvPYm-1" vertex="1">
                    <mxGeometry x="400" width="80" height="40" as="geometry">
                        <mxRectangle width="80" height="40" as="alternateBounds"/>
                    </mxGeometry>
                </mxCell>
                <mxCell id="j3-xlIUGgzQtN1zLinpL-0" value="city_id" style="shape=partialRectangle;html=1;whiteSpace=wrap;connectable=0;overflow=hidden;fillColor=none;top=0;left=0;bottom=0;right=0;pointerEvents=1;" parent="8IiVpp9iAI5D9PUYvPYm-1" vertex="1">
                    <mxGeometry x="480" width="50" height="40" as="geometry">
                        <mxRectangle width="50" height="40" as="alternateBounds"/>
                    </mxGeometry>
                </mxCell>
                <mxCell id="8IiVpp9iAI5D9PUYvPYm-7" value="" style="shape=partialRectangle;collapsible=0;dropTarget=0;pointerEvents=0;fillColor=none;top=0;left=0;bottom=0;right=0;points=[[0,0.5],[1,0.5]];portConstraint=eastwest;" parent="8IiVpp9iAI5D9PUYvPYm-0" vertex="1">
                    <mxGeometry y="80" width="530" height="42" as="geometry"/>
                </mxCell>
                <mxCell id="8IiVpp9iAI5D9PUYvPYm-8" value="1" style="shape=partialRectangle;html=1;whiteSpace=wrap;connectable=0;overflow=hidden;fillColor=none;top=0;left=0;bottom=0;right=0;pointerEvents=1;" parent="8IiVpp9iAI5D9PUYvPYm-7" vertex="1">
                    <mxGeometry width="40" height="42" as="geometry">
                        <mxRectangle width="40" height="42" as="alternateBounds"/>
                    </mxGeometry>
                </mxCell>
                <mxCell id="8IiVpp9iAI5D9PUYvPYm-9" value="Diana Maldonado" style="shape=partialRectangle;html=1;whiteSpace=wrap;connectable=0;overflow=hidden;fillColor=none;top=0;left=0;bottom=0;right=0;pointerEvents=1;" parent="8IiVpp9iAI5D9PUYvPYm-7" vertex="1">
                    <mxGeometry x="40" width="120" height="42" as="geometry">
                        <mxRectangle width="120" height="42" as="alternateBounds"/>
                    </mxGeometry>
                </mxCell>
                <mxCell id="8IiVpp9iAI5D9PUYvPYm-10" value="52958379" style="shape=partialRectangle;html=1;whiteSpace=wrap;connectable=0;overflow=hidden;fillColor=none;top=0;left=0;bottom=0;right=0;pointerEvents=1;" parent="8IiVpp9iAI5D9PUYvPYm-7" vertex="1">
                    <mxGeometry x="160" width="120" height="42" as="geometry">
                        <mxRectangle width="120" height="42" as="alternateBounds"/>
                    </mxGeometry>
                </mxCell>
                <mxCell id="8IiVpp9iAI5D9PUYvPYm-11" value="CÃ©dula" style="shape=partialRectangle;html=1;whiteSpace=wrap;connectable=0;overflow=hidden;fillColor=none;top=0;left=0;bottom=0;right=0;pointerEvents=1;" parent="8IiVpp9iAI5D9PUYvPYm-7" vertex="1">
                    <mxGeometry x="280" width="120" height="42" as="geometry">
                        <mxRectangle width="120" height="42" as="alternateBounds"/>
                    </mxGeometry>
                </mxCell>
                <mxCell id="8IiVpp9iAI5D9PUYvPYm-12" value="3007295379" style="shape=partialRectangle;html=1;whiteSpace=wrap;connectable=0;overflow=hidden;fillColor=none;top=0;left=0;bottom=0;right=0;pointerEvents=1;" parent="8IiVpp9iAI5D9PUYvPYm-7" vertex="1">
                    <mxGeometry x="400" width="80" height="42" as="geometry">
                        <mxRectangle width="80" height="42" as="alternateBounds"/>
                    </mxGeometry>
                </mxCell>
                <mxCell id="j3-xlIUGgzQtN1zLinpL-1" value="1" style="shape=partialRectangle;html=1;whiteSpace=wrap;connectable=0;overflow=hidden;fillColor=none;top=0;left=0;bottom=0;right=0;pointerEvents=1;" parent="8IiVpp9iAI5D9PUYvPYm-7" vertex="1">
                    <mxGeometry x="480" width="50" height="42" as="geometry">
                        <mxRectangle width="50" height="42" as="alternateBounds"/>
                    </mxGeometry>
                </mxCell>
                <mxCell id="8IiVpp9iAI5D9PUYvPYm-13" value="" style="shape=partialRectangle;collapsible=0;dropTarget=0;pointerEvents=0;fillColor=none;top=0;left=0;bottom=0;right=0;points=[[0,0.5],[1,0.5]];portConstraint=eastwest;" parent="8IiVpp9iAI5D9PUYvPYm-0" vertex="1">
                    <mxGeometry y="122" width="530" height="38" as="geometry"/>
                </mxCell>
                <mxCell id="8IiVpp9iAI5D9PUYvPYm-14" value="2" style="shape=partialRectangle;html=1;whiteSpace=wrap;connectable=0;overflow=hidden;fillColor=none;top=0;left=0;bottom=0;right=0;pointerEvents=1;" parent="8IiVpp9iAI5D9PUYvPYm-13" vertex="1">
                    <mxGeometry width="40" height="38" as="geometry">
                        <mxRectangle width="40" height="38" as="alternateBounds"/>
                    </mxGeometry>
                </mxCell>
                <mxCell id="8IiVpp9iAI5D9PUYvPYm-15" value="Daniel Valencia" style="shape=partialRectangle;html=1;whiteSpace=wrap;connectable=0;overflow=hidden;fillColor=none;top=0;left=0;bottom=0;right=0;pointerEvents=1;" parent="8IiVpp9iAI5D9PUYvPYm-13" vertex="1">
                    <mxGeometry x="40" width="120" height="38" as="geometry">
                        <mxRectangle width="120" height="38" as="alternateBounds"/>
                    </mxGeometry>
                </mxCell>
                <mxCell id="8IiVpp9iAI5D9PUYvPYm-16" value="1000363321" style="shape=partialRectangle;html=1;whiteSpace=wrap;connectable=0;overflow=hidden;fillColor=none;top=0;left=0;bottom=0;right=0;pointerEvents=1;" parent="8IiVpp9iAI5D9PUYvPYm-13" vertex="1">
                    <mxGeometry x="160" width="120" height="38" as="geometry">
                        <mxRectangle width="120" height="38" as="alternateBounds"/>
                    </mxGeometry>
                </mxCell>
                <mxCell id="8IiVpp9iAI5D9PUYvPYm-17" value="CÃ©dula" style="shape=partialRectangle;html=1;whiteSpace=wrap;connectable=0;overflow=hidden;fillColor=none;top=0;left=0;bottom=0;right=0;pointerEvents=1;" parent="8IiVpp9iAI5D9PUYvPYm-13" vertex="1">
                    <mxGeometry x="280" width="120" height="38" as="geometry">
                        <mxRectangle width="120" height="38" as="alternateBounds"/>
                    </mxGeometry>
                </mxCell>
                <mxCell id="8IiVpp9iAI5D9PUYvPYm-18" value="3108719984" style="shape=partialRectangle;html=1;whiteSpace=wrap;connectable=0;overflow=hidden;fillColor=none;top=0;left=0;bottom=0;right=0;pointerEvents=1;" parent="8IiVpp9iAI5D9PUYvPYm-13" vertex="1">
                    <mxGeometry x="400" width="80" height="38" as="geometry">
                        <mxRectangle width="80" height="38" as="alternateBounds"/>
                    </mxGeometry>
                </mxCell>
                <mxCell id="j3-xlIUGgzQtN1zLinpL-2" value="1" style="shape=partialRectangle;html=1;whiteSpace=wrap;connectable=0;overflow=hidden;fillColor=none;top=0;left=0;bottom=0;right=0;pointerEvents=1;" parent="8IiVpp9iAI5D9PUYvPYm-13" vertex="1">
                    <mxGeometry x="480" width="50" height="38" as="geometry">
                        <mxRectangle width="50" height="38" as="alternateBounds"/>
                    </mxGeometry>
                </mxCell>
                <mxCell id="8IiVpp9iAI5D9PUYvPYm-19" value="" style="shape=partialRectangle;collapsible=0;dropTarget=0;pointerEvents=0;fillColor=none;top=0;left=0;bottom=0;right=0;points=[[0,0.5],[1,0.5]];portConstraint=eastwest;" parent="8IiVpp9iAI5D9PUYvPYm-0" vertex="1">
                    <mxGeometry y="160" width="530" height="40" as="geometry"/>
                </mxCell>
                <mxCell id="8IiVpp9iAI5D9PUYvPYm-20" value="3" style="shape=partialRectangle;html=1;whiteSpace=wrap;connectable=0;overflow=hidden;fillColor=none;top=0;left=0;bottom=0;right=0;pointerEvents=1;" parent="8IiVpp9iAI5D9PUYvPYm-19" vertex="1">
                    <mxGeometry width="40" height="40" as="geometry">
                        <mxRectangle width="40" height="40" as="alternateBounds"/>
                    </mxGeometry>
                </mxCell>
                <mxCell id="8IiVpp9iAI5D9PUYvPYm-21" value="Margoth Robayo" style="shape=partialRectangle;html=1;whiteSpace=wrap;connectable=0;overflow=hidden;fillColor=none;top=0;left=0;bottom=0;right=0;pointerEvents=1;" parent="8IiVpp9iAI5D9PUYvPYm-19" vertex="1">
                    <mxGeometry x="40" width="120" height="40" as="geometry">
                        <mxRectangle width="120" height="40" as="alternateBounds"/>
                    </mxGeometry>
                </mxCell>
                <mxCell id="8IiVpp9iAI5D9PUYvPYm-22" value="1033723058" style="shape=partialRectangle;html=1;whiteSpace=wrap;connectable=0;overflow=hidden;fillColor=none;top=0;left=0;bottom=0;right=0;pointerEvents=1;" parent="8IiVpp9iAI5D9PUYvPYm-19" vertex="1">
                    <mxGeometry x="160" width="120" height="40" as="geometry">
                        <mxRectangle width="120" height="40" as="alternateBounds"/>
                    </mxGeometry>
                </mxCell>
                <mxCell id="8IiVpp9iAI5D9PUYvPYm-23" value="CÃ©dula" style="shape=partialRectangle;html=1;whiteSpace=wrap;connectable=0;overflow=hidden;fillColor=none;top=0;left=0;bottom=0;right=0;pointerEvents=1;" parent="8IiVpp9iAI5D9PUYvPYm-19" vertex="1">
                    <mxGeometry x="280" width="120" height="40" as="geometry">
                        <mxRectangle width="120" height="40" as="alternateBounds"/>
                    </mxGeometry>
                </mxCell>
                <mxCell id="8IiVpp9iAI5D9PUYvPYm-24" value="3115248609" style="shape=partialRectangle;html=1;whiteSpace=wrap;connectable=0;overflow=hidden;fillColor=none;top=0;left=0;bottom=0;right=0;pointerEvents=1;" parent="8IiVpp9iAI5D9PUYvPYm-19" vertex="1">
                    <mxGeometry x="400" width="80" height="40" as="geometry">
                        <mxRectangle width="80" height="40" as="alternateBounds"/>
                    </mxGeometry>
                </mxCell>
                <mxCell id="j3-xlIUGgzQtN1zLinpL-3" value="2" style="shape=partialRectangle;html=1;whiteSpace=wrap;connectable=0;overflow=hidden;fillColor=none;top=0;left=0;bottom=0;right=0;pointerEvents=1;" parent="8IiVpp9iAI5D9PUYvPYm-19" vertex="1">
                    <mxGeometry x="480" width="50" height="40" as="geometry">
                        <mxRectangle width="50" height="40" as="alternateBounds"/>
                    </mxGeometry>
                </mxCell>
                <mxCell id="8IiVpp9iAI5D9PUYvPYm-25" value="" style="shape=partialRectangle;collapsible=0;dropTarget=0;pointerEvents=0;fillColor=none;top=0;left=0;bottom=0;right=0;points=[[0,0.5],[1,0.5]];portConstraint=eastwest;" parent="8IiVpp9iAI5D9PUYvPYm-0" vertex="1">
                    <mxGeometry y="200" width="530" height="40" as="geometry"/>
                </mxCell>
                <mxCell id="8IiVpp9iAI5D9PUYvPYm-26" value="4" style="shape=partialRectangle;html=1;whiteSpace=wrap;connectable=0;overflow=hidden;fillColor=none;top=0;left=0;bottom=0;right=0;pointerEvents=1;" parent="8IiVpp9iAI5D9PUYvPYm-25" vertex="1">
                    <mxGeometry width="40" height="40" as="geometry">
                        <mxRectangle width="40" height="40" as="alternateBounds"/>
                    </mxGeometry>
                </mxCell>
                <mxCell id="8IiVpp9iAI5D9PUYvPYm-27" value="Yonny Merchan" style="shape=partialRectangle;html=1;whiteSpace=wrap;connectable=0;overflow=hidden;fillColor=none;top=0;left=0;bottom=0;right=0;pointerEvents=1;" parent="8IiVpp9iAI5D9PUYvPYm-25" vertex="1">
                    <mxGeometry x="40" width="120" height="40" as="geometry">
                        <mxRectangle width="120" height="40" as="alternateBounds"/>
                    </mxGeometry>
                </mxCell>
                <mxCell id="8IiVpp9iAI5D9PUYvPYm-28" value="80363529" style="shape=partialRectangle;html=1;whiteSpace=wrap;connectable=0;overflow=hidden;fillColor=none;top=0;left=0;bottom=0;right=0;pointerEvents=1;" parent="8IiVpp9iAI5D9PUYvPYm-25" vertex="1">
                    <mxGeometry x="160" width="120" height="40" as="geometry">
                        <mxRectangle width="120" height="40" as="alternateBounds"/>
                    </mxGeometry>
                </mxCell>
                <mxCell id="8IiVpp9iAI5D9PUYvPYm-29" value="CÃ©dula" style="shape=partialRectangle;html=1;whiteSpace=wrap;connectable=0;overflow=hidden;fillColor=none;top=0;left=0;bottom=0;right=0;pointerEvents=1;" parent="8IiVpp9iAI5D9PUYvPYm-25" vertex="1">
                    <mxGeometry x="280" width="120" height="40" as="geometry">
                        <mxRectangle width="120" height="40" as="alternateBounds"/>
                    </mxGeometry>
                </mxCell>
                <mxCell id="8IiVpp9iAI5D9PUYvPYm-30" value="3133397462" style="shape=partialRectangle;html=1;whiteSpace=wrap;connectable=0;overflow=hidden;fillColor=none;top=0;left=0;bottom=0;right=0;pointerEvents=1;" parent="8IiVpp9iAI5D9PUYvPYm-25" vertex="1">
                    <mxGeometry x="400" width="80" height="40" as="geometry">
                        <mxRectangle width="80" height="40" as="alternateBounds"/>
                    </mxGeometry>
                </mxCell>
                <mxCell id="j3-xlIUGgzQtN1zLinpL-4" value="2" style="shape=partialRectangle;html=1;whiteSpace=wrap;connectable=0;overflow=hidden;fillColor=none;top=0;left=0;bottom=0;right=0;pointerEvents=1;" parent="8IiVpp9iAI5D9PUYvPYm-25" vertex="1">
                    <mxGeometry x="480" width="50" height="40" as="geometry">
                        <mxRectangle width="50" height="40" as="alternateBounds"/>
                    </mxGeometry>
                </mxCell>
                <mxCell id="RCkqeMaOAAqJ8Tzpqa3i-0" value="payments" style="shape=table;startSize=40;container=1;collapsible=0;childLayout=tableLayout;gradientColor=#009400;fillColor=#66FF66;fontFamily=Georgia;fontColor=#000000;fontStyle=3;labelBackgroundColor=none;swimlaneFillColor=#000000;strokeColor=#66FF66;" parent="3rnbf16T3xSzr0oEW06G-1" vertex="1">
                    <mxGeometry x="1520" y="40" width="400" height="240" as="geometry"/>
                </mxCell>
                <mxCell id="RCkqeMaOAAqJ8Tzpqa3i-1" value="" style="shape=partialRectangle;collapsible=0;dropTarget=0;pointerEvents=0;fillColor=none;top=0;left=0;bottom=0;right=0;points=[[0,0.5],[1,0.5]];portConstraint=eastwest;" parent="RCkqeMaOAAqJ8Tzpqa3i-0" vertex="1">
                    <mxGeometry y="40" width="400" height="40" as="geometry"/>
                </mxCell>
                <mxCell id="RCkqeMaOAAqJ8Tzpqa3i-2" value="id" style="shape=partialRectangle;html=1;whiteSpace=wrap;connectable=0;overflow=hidden;fillColor=none;top=0;left=0;bottom=0;right=0;pointerEvents=1;fontFamily=Georgia;" parent="RCkqeMaOAAqJ8Tzpqa3i-1" vertex="1">
                    <mxGeometry width="40" height="40" as="geometry">
                        <mxRectangle width="40" height="40" as="alternateBounds"/>
                    </mxGeometry>
                </mxCell>
                <mxCell id="RCkqeMaOAAqJ8Tzpqa3i-3" value="&lt;font face=&quot;Georgia&quot;&gt;user_id&lt;/font&gt;" style="shape=partialRectangle;html=1;whiteSpace=wrap;connectable=0;overflow=hidden;fillColor=none;top=0;left=0;bottom=0;right=0;pointerEvents=1;" parent="RCkqeMaOAAqJ8Tzpqa3i-1" vertex="1">
                    <mxGeometry x="40" width="80" height="40" as="geometry">
                        <mxRectangle width="80" height="40" as="alternateBounds"/>
                    </mxGeometry>
                </mxCell>
                <mxCell id="RCkqeMaOAAqJ8Tzpqa3i-4" value="&lt;font face=&quot;Georgia&quot;&gt;amount&lt;/font&gt;" style="shape=partialRectangle;html=1;whiteSpace=wrap;connectable=0;overflow=hidden;fillColor=none;top=0;left=0;bottom=0;right=0;pointerEvents=1;" parent="RCkqeMaOAAqJ8Tzpqa3i-1" vertex="1">
                    <mxGeometry x="120" width="80" height="40" as="geometry">
                        <mxRectangle width="80" height="40" as="alternateBounds"/>
                    </mxGeometry>
                </mxCell>
                <mxCell id="RCkqeMaOAAqJ8Tzpqa3i-5" value="&lt;font face=&quot;Georgia&quot;&gt;date&lt;/font&gt;" style="shape=partialRectangle;html=1;whiteSpace=wrap;connectable=0;overflow=hidden;fillColor=none;top=0;left=0;bottom=0;right=0;pointerEvents=1;" parent="RCkqeMaOAAqJ8Tzpqa3i-1" vertex="1">
                    <mxGeometry x="200" width="80" height="40" as="geometry">
                        <mxRectangle width="80" height="40" as="alternateBounds"/>
                    </mxGeometry>
                </mxCell>
                <mxCell id="RCkqeMaOAAqJ8Tzpqa3i-6" value="&lt;font face=&quot;Georgia&quot;&gt;method_id&lt;/font&gt;" style="shape=partialRectangle;html=1;whiteSpace=wrap;connectable=0;overflow=hidden;fillColor=none;top=0;left=0;bottom=0;right=0;pointerEvents=1;" parent="RCkqeMaOAAqJ8Tzpqa3i-1" vertex="1">
                    <mxGeometry x="280" width="120" height="40" as="geometry">
                        <mxRectangle width="120" height="40" as="alternateBounds"/>
                    </mxGeometry>
                </mxCell>
                <mxCell id="RCkqeMaOAAqJ8Tzpqa3i-8" value="" style="shape=partialRectangle;collapsible=0;dropTarget=0;pointerEvents=0;fillColor=none;top=0;left=0;bottom=0;right=0;points=[[0,0.5],[1,0.5]];portConstraint=eastwest;" parent="RCkqeMaOAAqJ8Tzpqa3i-0" vertex="1">
                    <mxGeometry y="80" width="400" height="42" as="geometry"/>
                </mxCell>
                <mxCell id="RCkqeMaOAAqJ8Tzpqa3i-9" value="1" style="shape=partialRectangle;html=1;whiteSpace=wrap;connectable=0;overflow=hidden;fillColor=none;top=0;left=0;bottom=0;right=0;pointerEvents=1;" parent="RCkqeMaOAAqJ8Tzpqa3i-8" vertex="1">
                    <mxGeometry width="40" height="42" as="geometry">
                        <mxRectangle width="40" height="42" as="alternateBounds"/>
                    </mxGeometry>
                </mxCell>
                <mxCell id="RCkqeMaOAAqJ8Tzpqa3i-10" value="3" style="shape=partialRectangle;html=1;whiteSpace=wrap;connectable=0;overflow=hidden;fillColor=none;top=0;left=0;bottom=0;right=0;pointerEvents=1;" parent="RCkqeMaOAAqJ8Tzpqa3i-8" vertex="1">
                    <mxGeometry x="40" width="80" height="42" as="geometry">
                        <mxRectangle width="80" height="42" as="alternateBounds"/>
                    </mxGeometry>
                </mxCell>
                <mxCell id="RCkqeMaOAAqJ8Tzpqa3i-11" value="$140000" style="shape=partialRectangle;html=1;whiteSpace=wrap;connectable=0;overflow=hidden;fillColor=none;top=0;left=0;bottom=0;right=0;pointerEvents=1;" parent="RCkqeMaOAAqJ8Tzpqa3i-8" vertex="1">
                    <mxGeometry x="120" width="80" height="42" as="geometry">
                        <mxRectangle width="80" height="42" as="alternateBounds"/>
                    </mxGeometry>
                </mxCell>
                <mxCell id="RCkqeMaOAAqJ8Tzpqa3i-12" value="21/06/2022" style="shape=partialRectangle;html=1;whiteSpace=wrap;connectable=0;overflow=hidden;fillColor=none;top=0;left=0;bottom=0;right=0;pointerEvents=1;" parent="RCkqeMaOAAqJ8Tzpqa3i-8" vertex="1">
                    <mxGeometry x="200" width="80" height="42" as="geometry">
                        <mxRectangle width="80" height="42" as="alternateBounds"/>
                    </mxGeometry>
                </mxCell>
                <mxCell id="RCkqeMaOAAqJ8Tzpqa3i-13" value="&lt;font face=&quot;Georgia&quot;&gt;2&lt;/font&gt;" style="shape=partialRectangle;html=1;whiteSpace=wrap;connectable=0;overflow=hidden;fillColor=none;top=0;left=0;bottom=0;right=0;pointerEvents=1;" parent="RCkqeMaOAAqJ8Tzpqa3i-8" vertex="1">
                    <mxGeometry x="280" width="120" height="42" as="geometry">
                        <mxRectangle width="120" height="42" as="alternateBounds"/>
                    </mxGeometry>
                </mxCell>
                <mxCell id="RCkqeMaOAAqJ8Tzpqa3i-15" value="" style="shape=partialRectangle;collapsible=0;dropTarget=0;pointerEvents=0;fillColor=none;top=0;left=0;bottom=0;right=0;points=[[0,0.5],[1,0.5]];portConstraint=eastwest;" parent="RCkqeMaOAAqJ8Tzpqa3i-0" vertex="1">
                    <mxGeometry y="122" width="400" height="38" as="geometry"/>
                </mxCell>
                <mxCell id="RCkqeMaOAAqJ8Tzpqa3i-16" value="2" style="shape=partialRectangle;html=1;whiteSpace=wrap;connectable=0;overflow=hidden;fillColor=none;top=0;left=0;bottom=0;right=0;pointerEvents=1;" parent="RCkqeMaOAAqJ8Tzpqa3i-15" vertex="1">
                    <mxGeometry width="40" height="38" as="geometry">
                        <mxRectangle width="40" height="38" as="alternateBounds"/>
                    </mxGeometry>
                </mxCell>
                <mxCell id="RCkqeMaOAAqJ8Tzpqa3i-17" value="2" style="shape=partialRectangle;html=1;whiteSpace=wrap;connectable=0;overflow=hidden;fillColor=none;top=0;left=0;bottom=0;right=0;pointerEvents=1;" parent="RCkqeMaOAAqJ8Tzpqa3i-15" vertex="1">
                    <mxGeometry x="40" width="80" height="38" as="geometry">
                        <mxRectangle width="80" height="38" as="alternateBounds"/>
                    </mxGeometry>
                </mxCell>
                <mxCell id="RCkqeMaOAAqJ8Tzpqa3i-18" value="$70000" style="shape=partialRectangle;html=1;whiteSpace=wrap;connectable=0;overflow=hidden;fillColor=none;top=0;left=0;bottom=0;right=0;pointerEvents=1;" parent="RCkqeMaOAAqJ8Tzpqa3i-15" vertex="1">
                    <mxGeometry x="120" width="80" height="38" as="geometry">
                        <mxRectangle width="80" height="38" as="alternateBounds"/>
                    </mxGeometry>
                </mxCell>
                <mxCell id="RCkqeMaOAAqJ8Tzpqa3i-19" value="15/02/2021" style="shape=partialRectangle;html=1;whiteSpace=wrap;connectable=0;overflow=hidden;fillColor=none;top=0;left=0;bottom=0;right=0;pointerEvents=1;" parent="RCkqeMaOAAqJ8Tzpqa3i-15" vertex="1">
                    <mxGeometry x="200" width="80" height="38" as="geometry">
                        <mxRectangle width="80" height="38" as="alternateBounds"/>
                    </mxGeometry>
                </mxCell>
                <mxCell id="RCkqeMaOAAqJ8Tzpqa3i-20" value="&lt;font face=&quot;Georgia&quot;&gt;1&lt;/font&gt;" style="shape=partialRectangle;html=1;whiteSpace=wrap;connectable=0;overflow=hidden;fillColor=none;top=0;left=0;bottom=0;right=0;pointerEvents=1;" parent="RCkqeMaOAAqJ8Tzpqa3i-15" vertex="1">
                    <mxGeometry x="280" width="120" height="38" as="geometry">
                        <mxRectangle width="120" height="38" as="alternateBounds"/>
                    </mxGeometry>
                </mxCell>
                <mxCell id="RCkqeMaOAAqJ8Tzpqa3i-22" value="" style="shape=partialRectangle;collapsible=0;dropTarget=0;pointerEvents=0;fillColor=none;top=0;left=0;bottom=0;right=0;points=[[0,0.5],[1,0.5]];portConstraint=eastwest;" parent="RCkqeMaOAAqJ8Tzpqa3i-0" vertex="1">
                    <mxGeometry y="160" width="400" height="40" as="geometry"/>
                </mxCell>
                <mxCell id="RCkqeMaOAAqJ8Tzpqa3i-23" value="3" style="shape=partialRectangle;html=1;whiteSpace=wrap;connectable=0;overflow=hidden;fillColor=none;top=0;left=0;bottom=0;right=0;pointerEvents=1;" parent="RCkqeMaOAAqJ8Tzpqa3i-22" vertex="1">
                    <mxGeometry width="40" height="40" as="geometry">
                        <mxRectangle width="40" height="40" as="alternateBounds"/>
                    </mxGeometry>
                </mxCell>
                <mxCell id="RCkqeMaOAAqJ8Tzpqa3i-24" value="4" style="shape=partialRectangle;html=1;whiteSpace=wrap;connectable=0;overflow=hidden;fillColor=none;top=0;left=0;bottom=0;right=0;pointerEvents=1;" parent="RCkqeMaOAAqJ8Tzpqa3i-22" vertex="1">
                    <mxGeometry x="40" width="80" height="40" as="geometry">
                        <mxRectangle width="80" height="40" as="alternateBounds"/>
                    </mxGeometry>
                </mxCell>
                <mxCell id="RCkqeMaOAAqJ8Tzpqa3i-25" value="$150000" style="shape=partialRectangle;html=1;whiteSpace=wrap;connectable=0;overflow=hidden;fillColor=none;top=0;left=0;bottom=0;right=0;pointerEvents=1;" parent="RCkqeMaOAAqJ8Tzpqa3i-22" vertex="1">
                    <mxGeometry x="120" width="80" height="40" as="geometry">
                        <mxRectangle width="80" height="40" as="alternateBounds"/>
                    </mxGeometry>
                </mxCell>
                <mxCell id="RCkqeMaOAAqJ8Tzpqa3i-26" value="04/05/2022" style="shape=partialRectangle;html=1;whiteSpace=wrap;connectable=0;overflow=hidden;fillColor=none;top=0;left=0;bottom=0;right=0;pointerEvents=1;" parent="RCkqeMaOAAqJ8Tzpqa3i-22" vertex="1">
                    <mxGeometry x="200" width="80" height="40" as="geometry">
                        <mxRectangle width="80" height="40" as="alternateBounds"/>
                    </mxGeometry>
                </mxCell>
                <mxCell id="RCkqeMaOAAqJ8Tzpqa3i-27" value="&lt;span style=&quot;font-family: &amp;#34;georgia&amp;#34;&quot;&gt;2&lt;/span&gt;" style="shape=partialRectangle;html=1;whiteSpace=wrap;connectable=0;overflow=hidden;fillColor=none;top=0;left=0;bottom=0;right=0;pointerEvents=1;" parent="RCkqeMaOAAqJ8Tzpqa3i-22" vertex="1">
                    <mxGeometry x="280" width="120" height="40" as="geometry">
                        <mxRectangle width="120" height="40" as="alternateBounds"/>
                    </mxGeometry>
                </mxCell>
                <mxCell id="RCkqeMaOAAqJ8Tzpqa3i-29" value="" style="shape=partialRectangle;collapsible=0;dropTarget=0;pointerEvents=0;fillColor=none;top=0;left=0;bottom=0;right=0;points=[[0,0.5],[1,0.5]];portConstraint=eastwest;" parent="RCkqeMaOAAqJ8Tzpqa3i-0" vertex="1">
                    <mxGeometry y="200" width="400" height="40" as="geometry"/>
                </mxCell>
                <mxCell id="RCkqeMaOAAqJ8Tzpqa3i-30" value="4" style="shape=partialRectangle;html=1;whiteSpace=wrap;connectable=0;overflow=hidden;fillColor=none;top=0;left=0;bottom=0;right=0;pointerEvents=1;" parent="RCkqeMaOAAqJ8Tzpqa3i-29" vertex="1">
                    <mxGeometry width="40" height="40" as="geometry">
                        <mxRectangle width="40" height="40" as="alternateBounds"/>
                    </mxGeometry>
                </mxCell>
                <mxCell id="RCkqeMaOAAqJ8Tzpqa3i-31" value="1" style="shape=partialRectangle;html=1;whiteSpace=wrap;connectable=0;overflow=hidden;fillColor=none;top=0;left=0;bottom=0;right=0;pointerEvents=1;" parent="RCkqeMaOAAqJ8Tzpqa3i-29" vertex="1">
                    <mxGeometry x="40" width="80" height="40" as="geometry">
                        <mxRectangle width="80" height="40" as="alternateBounds"/>
                    </mxGeometry>
                </mxCell>
                <mxCell id="RCkqeMaOAAqJ8Tzpqa3i-32" value="$70000" style="shape=partialRectangle;html=1;whiteSpace=wrap;connectable=0;overflow=hidden;fillColor=none;top=0;left=0;bottom=0;right=0;pointerEvents=1;" parent="RCkqeMaOAAqJ8Tzpqa3i-29" vertex="1">
                    <mxGeometry x="120" width="80" height="40" as="geometry">
                        <mxRectangle width="80" height="40" as="alternateBounds"/>
                    </mxGeometry>
                </mxCell>
                <mxCell id="RCkqeMaOAAqJ8Tzpqa3i-33" value="07/12/2021" style="shape=partialRectangle;html=1;whiteSpace=wrap;connectable=0;overflow=hidden;fillColor=none;top=0;left=0;bottom=0;right=0;pointerEvents=1;" parent="RCkqeMaOAAqJ8Tzpqa3i-29" vertex="1">
                    <mxGeometry x="200" width="80" height="40" as="geometry">
                        <mxRectangle width="80" height="40" as="alternateBounds"/>
                    </mxGeometry>
                </mxCell>
                <mxCell id="RCkqeMaOAAqJ8Tzpqa3i-34" value="&lt;font face=&quot;Georgia&quot;&gt;1&lt;/font&gt;" style="shape=partialRectangle;html=1;whiteSpace=wrap;connectable=0;overflow=hidden;fillColor=none;top=0;left=0;bottom=0;right=0;pointerEvents=1;" parent="RCkqeMaOAAqJ8Tzpqa3i-29" vertex="1">
                    <mxGeometry x="280" width="120" height="40" as="geometry">
                        <mxRectangle width="120" height="40" as="alternateBounds"/>
                    </mxGeometry>
                </mxCell>
                <mxCell id="HbmrBkCzAo6XUtmFAMgo-0" style="edgeStyle=none;html=1;exitX=1;exitY=0.5;exitDx=0;exitDy=0;entryX=0;entryY=0.5;entryDx=0;entryDy=0;fontFamily=Georgia;fontColor=#FFFFFF;endArrow=classic;endFill=1;" parent="3rnbf16T3xSzr0oEW06G-1" source="RCkqeMaOAAqJ8Tzpqa3i-8" target="8IiVpp9iAI5D9PUYvPYm-7" edge="1">
                    <mxGeometry relative="1" as="geometry"/>
                </mxCell>
                <mxCell id="uDETKoptyffwtw7b9miy-0" value="products_payments" style="shape=table;startSize=40;container=1;collapsible=0;childLayout=tableLayout;labelBackgroundColor=none;fontFamily=Georgia;fontColor=#000000;strokeColor=#66FF66;fillColor=#FFFF00;gradientColor=#009400;swimlaneFillColor=#000000;fontStyle=3;gradientDirection=east;" parent="3rnbf16T3xSzr0oEW06G-1" vertex="1">
                    <mxGeometry x="1241" y="40" width="200" height="440" as="geometry"/>
                </mxCell>
                <mxCell id="uDETKoptyffwtw7b9miy-1" value="" style="shape=partialRectangle;collapsible=0;dropTarget=0;pointerEvents=0;fillColor=none;top=0;left=0;bottom=0;right=0;points=[[0,0.5],[1,0.5]];portConstraint=eastwest;labelBackgroundColor=none;fontFamily=Georgia;fontColor=#FFFFFF;strokeColor=#66FF66;" parent="uDETKoptyffwtw7b9miy-0" vertex="1">
                    <mxGeometry y="40" width="200" height="39" as="geometry"/>
                </mxCell>
                <mxCell id="uDETKoptyffwtw7b9miy-2" value="id" style="shape=partialRectangle;html=1;whiteSpace=wrap;connectable=0;overflow=hidden;fillColor=none;top=0;left=0;bottom=0;right=0;pointerEvents=1;labelBackgroundColor=none;fontFamily=Georgia;fontColor=#FFFFFF;strokeColor=#66FF66;" parent="uDETKoptyffwtw7b9miy-1" vertex="1">
                    <mxGeometry width="40" height="39" as="geometry">
                        <mxRectangle width="40" height="39" as="alternateBounds"/>
                    </mxGeometry>
                </mxCell>
                <mxCell id="uDETKoptyffwtw7b9miy-3" value="product_id" style="shape=partialRectangle;html=1;whiteSpace=wrap;connectable=0;overflow=hidden;fillColor=none;top=0;left=0;bottom=0;right=0;pointerEvents=1;labelBackgroundColor=none;fontFamily=Georgia;fontColor=#FFFFFF;strokeColor=#66FF66;" parent="uDETKoptyffwtw7b9miy-1" vertex="1">
                    <mxGeometry x="40" width="80" height="39" as="geometry">
                        <mxRectangle width="80" height="39" as="alternateBounds"/>
                    </mxGeometry>
                </mxCell>
                <mxCell id="uDETKoptyffwtw7b9miy-4" value="payment_id" style="shape=partialRectangle;html=1;whiteSpace=wrap;connectable=0;overflow=hidden;fillColor=none;top=0;left=0;bottom=0;right=0;pointerEvents=1;labelBackgroundColor=none;fontFamily=Georgia;fontColor=#FFFFFF;strokeColor=#66FF66;" parent="uDETKoptyffwtw7b9miy-1" vertex="1">
                    <mxGeometry x="120" width="80" height="39" as="geometry">
                        <mxRectangle width="80" height="39" as="alternateBounds"/>
                    </mxGeometry>
                </mxCell>
                <mxCell id="uDETKoptyffwtw7b9miy-5" value="" style="shape=partialRectangle;collapsible=0;dropTarget=0;pointerEvents=0;fillColor=none;top=0;left=0;bottom=0;right=0;points=[[0,0.5],[1,0.5]];portConstraint=eastwest;labelBackgroundColor=none;fontFamily=Georgia;fontColor=#FFFFFF;strokeColor=#66FF66;" parent="uDETKoptyffwtw7b9miy-0" vertex="1">
                    <mxGeometry y="79" width="200" height="41" as="geometry"/>
                </mxCell>
                <mxCell id="uDETKoptyffwtw7b9miy-6" value="1" style="shape=partialRectangle;html=1;whiteSpace=wrap;connectable=0;overflow=hidden;fillColor=none;top=0;left=0;bottom=0;right=0;pointerEvents=1;labelBackgroundColor=none;fontFamily=Georgia;fontColor=#FFFFFF;strokeColor=#66FF66;" parent="uDETKoptyffwtw7b9miy-5" vertex="1">
                    <mxGeometry width="40" height="41" as="geometry">
                        <mxRectangle width="40" height="41" as="alternateBounds"/>
                    </mxGeometry>
                </mxCell>
                <mxCell id="uDETKoptyffwtw7b9miy-7" value="1" style="shape=partialRectangle;html=1;whiteSpace=wrap;connectable=0;overflow=hidden;fillColor=none;top=0;left=0;bottom=0;right=0;pointerEvents=1;labelBackgroundColor=none;fontFamily=Georgia;fontColor=#FFFFFF;strokeColor=#66FF66;" parent="uDETKoptyffwtw7b9miy-5" vertex="1">
                    <mxGeometry x="40" width="80" height="41" as="geometry">
                        <mxRectangle width="80" height="41" as="alternateBounds"/>
                    </mxGeometry>
                </mxCell>
                <mxCell id="uDETKoptyffwtw7b9miy-8" value="1" style="shape=partialRectangle;html=1;whiteSpace=wrap;connectable=0;overflow=hidden;fillColor=none;top=0;left=0;bottom=0;right=0;pointerEvents=1;labelBackgroundColor=none;fontFamily=Georgia;fontColor=#FFFFFF;strokeColor=#66FF66;" parent="uDETKoptyffwtw7b9miy-5" vertex="1">
                    <mxGeometry x="120" width="80" height="41" as="geometry">
                        <mxRectangle width="80" height="41" as="alternateBounds"/>
                    </mxGeometry>
                </mxCell>
                <mxCell id="uDETKoptyffwtw7b9miy-9" value="" style="shape=partialRectangle;collapsible=0;dropTarget=0;pointerEvents=0;fillColor=none;top=0;left=0;bottom=0;right=0;points=[[0,0.5],[1,0.5]];portConstraint=eastwest;labelBackgroundColor=none;fontFamily=Georgia;fontColor=#FFFFFF;strokeColor=#66FF66;" parent="uDETKoptyffwtw7b9miy-0" vertex="1">
                    <mxGeometry y="120" width="200" height="39" as="geometry"/>
                </mxCell>
                <mxCell id="uDETKoptyffwtw7b9miy-10" value="2" style="shape=partialRectangle;html=1;whiteSpace=wrap;connectable=0;overflow=hidden;fillColor=none;top=0;left=0;bottom=0;right=0;pointerEvents=1;labelBackgroundColor=none;fontFamily=Georgia;fontColor=#FFFFFF;strokeColor=#66FF66;" parent="uDETKoptyffwtw7b9miy-9" vertex="1">
                    <mxGeometry width="40" height="39" as="geometry">
                        <mxRectangle width="40" height="39" as="alternateBounds"/>
                    </mxGeometry>
                </mxCell>
                <mxCell id="uDETKoptyffwtw7b9miy-11" value="2" style="shape=partialRectangle;html=1;whiteSpace=wrap;connectable=0;overflow=hidden;fillColor=none;top=0;left=0;bottom=0;right=0;pointerEvents=1;labelBackgroundColor=none;fontFamily=Georgia;fontColor=#FFFFFF;strokeColor=#66FF66;" parent="uDETKoptyffwtw7b9miy-9" vertex="1">
                    <mxGeometry x="40" width="80" height="39" as="geometry">
                        <mxRectangle width="80" height="39" as="alternateBounds"/>
                    </mxGeometry>
                </mxCell>
                <mxCell id="uDETKoptyffwtw7b9miy-12" value="1" style="shape=partialRectangle;html=1;whiteSpace=wrap;connectable=0;overflow=hidden;fillColor=none;top=0;left=0;bottom=0;right=0;pointerEvents=1;labelBackgroundColor=none;fontFamily=Georgia;fontColor=#FFFFFF;strokeColor=#66FF66;" parent="uDETKoptyffwtw7b9miy-9" vertex="1">
                    <mxGeometry x="120" width="80" height="39" as="geometry">
                        <mxRectangle width="80" height="39" as="alternateBounds"/>
                    </mxGeometry>
                </mxCell>
                <mxCell id="uDETKoptyffwtw7b9miy-13" value="" style="shape=partialRectangle;collapsible=0;dropTarget=0;pointerEvents=0;fillColor=none;top=0;left=0;bottom=0;right=0;points=[[0,0.5],[1,0.5]];portConstraint=eastwest;labelBackgroundColor=none;fontFamily=Georgia;fontColor=#FFFFFF;strokeColor=#66FF66;" parent="uDETKoptyffwtw7b9miy-0" vertex="1">
                    <mxGeometry y="159" width="200" height="41" as="geometry"/>
                </mxCell>
                <mxCell id="uDETKoptyffwtw7b9miy-14" value="3" style="shape=partialRectangle;html=1;whiteSpace=wrap;connectable=0;overflow=hidden;fillColor=none;top=0;left=0;bottom=0;right=0;pointerEvents=1;labelBackgroundColor=none;fontFamily=Georgia;fontColor=#FFFFFF;strokeColor=#66FF66;" parent="uDETKoptyffwtw7b9miy-13" vertex="1">
                    <mxGeometry width="40" height="41" as="geometry">
                        <mxRectangle width="40" height="41" as="alternateBounds"/>
                    </mxGeometry>
                </mxCell>
                <mxCell id="uDETKoptyffwtw7b9miy-15" value="3" style="shape=partialRectangle;html=1;whiteSpace=wrap;connectable=0;overflow=hidden;fillColor=none;top=0;left=0;bottom=0;right=0;pointerEvents=1;labelBackgroundColor=none;fontFamily=Georgia;fontColor=#FFFFFF;strokeColor=#66FF66;" parent="uDETKoptyffwtw7b9miy-13" vertex="1">
                    <mxGeometry x="40" width="80" height="41" as="geometry">
                        <mxRectangle width="80" height="41" as="alternateBounds"/>
                    </mxGeometry>
                </mxCell>
                <mxCell id="uDETKoptyffwtw7b9miy-16" value="2" style="shape=partialRectangle;html=1;whiteSpace=wrap;connectable=0;overflow=hidden;fillColor=none;top=0;left=0;bottom=0;right=0;pointerEvents=1;labelBackgroundColor=none;fontFamily=Georgia;fontColor=#FFFFFF;strokeColor=#66FF66;" parent="uDETKoptyffwtw7b9miy-13" vertex="1">
                    <mxGeometry x="120" width="80" height="41" as="geometry">
                        <mxRectangle width="80" height="41" as="alternateBounds"/>
                    </mxGeometry>
                </mxCell>
                <mxCell id="uDETKoptyffwtw7b9miy-17" value="" style="shape=partialRectangle;collapsible=0;dropTarget=0;pointerEvents=0;fillColor=none;top=0;left=0;bottom=0;right=0;points=[[0,0.5],[1,0.5]];portConstraint=eastwest;labelBackgroundColor=none;fontFamily=Georgia;fontColor=#FFFFFF;strokeColor=#66FF66;" parent="uDETKoptyffwtw7b9miy-0" vertex="1">
                    <mxGeometry y="200" width="200" height="39" as="geometry"/>
                </mxCell>
                <mxCell id="uDETKoptyffwtw7b9miy-18" value="4" style="shape=partialRectangle;html=1;whiteSpace=wrap;connectable=0;overflow=hidden;fillColor=none;top=0;left=0;bottom=0;right=0;pointerEvents=1;labelBackgroundColor=none;fontFamily=Georgia;fontColor=#FFFFFF;strokeColor=#66FF66;" parent="uDETKoptyffwtw7b9miy-17" vertex="1">
                    <mxGeometry width="40" height="39" as="geometry">
                        <mxRectangle width="40" height="39" as="alternateBounds"/>
                    </mxGeometry>
                </mxCell>
                <mxCell id="uDETKoptyffwtw7b9miy-19" value="4" style="shape=partialRectangle;html=1;whiteSpace=wrap;connectable=0;overflow=hidden;fillColor=none;top=0;left=0;bottom=0;right=0;pointerEvents=1;labelBackgroundColor=none;fontFamily=Georgia;fontColor=#FFFFFF;strokeColor=#66FF66;" parent="uDETKoptyffwtw7b9miy-17" vertex="1">
                    <mxGeometry x="40" width="80" height="39" as="geometry">
                        <mxRectangle width="80" height="39" as="alternateBounds"/>
                    </mxGeometry>
                </mxCell>
                <mxCell id="uDETKoptyffwtw7b9miy-20" value="2" style="shape=partialRectangle;html=1;whiteSpace=wrap;connectable=0;overflow=hidden;fillColor=none;top=0;left=0;bottom=0;right=0;pointerEvents=1;labelBackgroundColor=none;fontFamily=Georgia;fontColor=#FFFFFF;strokeColor=#66FF66;" parent="uDETKoptyffwtw7b9miy-17" vertex="1">
                    <mxGeometry x="120" width="80" height="39" as="geometry">
                        <mxRectangle width="80" height="39" as="alternateBounds"/>
                    </mxGeometry>
                </mxCell>
                <mxCell id="uDETKoptyffwtw7b9miy-21" value="" style="shape=partialRectangle;collapsible=0;dropTarget=0;pointerEvents=0;fillColor=none;top=0;left=0;bottom=0;right=0;points=[[0,0.5],[1,0.5]];portConstraint=eastwest;labelBackgroundColor=none;fontFamily=Georgia;fontColor=#FFFFFF;strokeColor=#66FF66;" parent="uDETKoptyffwtw7b9miy-0" vertex="1">
                    <mxGeometry y="239" width="200" height="41" as="geometry"/>
                </mxCell>
                <mxCell id="uDETKoptyffwtw7b9miy-22" value="5" style="shape=partialRectangle;html=1;whiteSpace=wrap;connectable=0;overflow=hidden;fillColor=none;top=0;left=0;bottom=0;right=0;pointerEvents=1;labelBackgroundColor=none;fontFamily=Georgia;fontColor=#FFFFFF;strokeColor=#66FF66;" parent="uDETKoptyffwtw7b9miy-21" vertex="1">
                    <mxGeometry width="40" height="41" as="geometry">
                        <mxRectangle width="40" height="41" as="alternateBounds"/>
                    </mxGeometry>
                </mxCell>
                <mxCell id="uDETKoptyffwtw7b9miy-23" value="1" style="shape=partialRectangle;html=1;whiteSpace=wrap;connectable=0;overflow=hidden;fillColor=none;top=0;left=0;bottom=0;right=0;pointerEvents=1;labelBackgroundColor=none;fontFamily=Georgia;fontColor=#FFFFFF;strokeColor=#66FF66;" parent="uDETKoptyffwtw7b9miy-21" vertex="1">
                    <mxGeometry x="40" width="80" height="41" as="geometry">
                        <mxRectangle width="80" height="41" as="alternateBounds"/>
                    </mxGeometry>
                </mxCell>
                <mxCell id="uDETKoptyffwtw7b9miy-24" value="3" style="shape=partialRectangle;html=1;whiteSpace=wrap;connectable=0;overflow=hidden;fillColor=none;top=0;left=0;bottom=0;right=0;pointerEvents=1;labelBackgroundColor=none;fontFamily=Georgia;fontColor=#FFFFFF;strokeColor=#66FF66;" parent="uDETKoptyffwtw7b9miy-21" vertex="1">
                    <mxGeometry x="120" width="80" height="41" as="geometry">
                        <mxRectangle width="80" height="41" as="alternateBounds"/>
                    </mxGeometry>
                </mxCell>
                <mxCell id="uDETKoptyffwtw7b9miy-25" value="" style="shape=partialRectangle;collapsible=0;dropTarget=0;pointerEvents=0;fillColor=none;top=0;left=0;bottom=0;right=0;points=[[0,0.5],[1,0.5]];portConstraint=eastwest;labelBackgroundColor=none;fontFamily=Georgia;fontColor=#FFFFFF;strokeColor=#66FF66;" parent="uDETKoptyffwtw7b9miy-0" vertex="1">
                    <mxGeometry y="280" width="200" height="39" as="geometry"/>
                </mxCell>
                <mxCell id="uDETKoptyffwtw7b9miy-26" value="6" style="shape=partialRectangle;html=1;whiteSpace=wrap;connectable=0;overflow=hidden;fillColor=none;top=0;left=0;bottom=0;right=0;pointerEvents=1;labelBackgroundColor=none;fontFamily=Georgia;fontColor=#FFFFFF;strokeColor=#66FF66;" parent="uDETKoptyffwtw7b9miy-25" vertex="1">
                    <mxGeometry width="40" height="39" as="geometry">
                        <mxRectangle width="40" height="39" as="alternateBounds"/>
                    </mxGeometry>
                </mxCell>
                <mxCell id="uDETKoptyffwtw7b9miy-27" value="3" style="shape=partialRectangle;html=1;whiteSpace=wrap;connectable=0;overflow=hidden;fillColor=none;top=0;left=0;bottom=0;right=0;pointerEvents=1;labelBackgroundColor=none;fontFamily=Georgia;fontColor=#FFFFFF;strokeColor=#66FF66;" parent="uDETKoptyffwtw7b9miy-25" vertex="1">
                    <mxGeometry x="40" width="80" height="39" as="geometry">
                        <mxRectangle width="80" height="39" as="alternateBounds"/>
                    </mxGeometry>
                </mxCell>
                <mxCell id="uDETKoptyffwtw7b9miy-28" value="3" style="shape=partialRectangle;html=1;whiteSpace=wrap;connectable=0;overflow=hidden;fillColor=none;top=0;left=0;bottom=0;right=0;pointerEvents=1;labelBackgroundColor=none;fontFamily=Georgia;fontColor=#FFFFFF;strokeColor=#66FF66;" parent="uDETKoptyffwtw7b9miy-25" vertex="1">
                    <mxGeometry x="120" width="80" height="39" as="geometry">
                        <mxRectangle width="80" height="39" as="alternateBounds"/>
                    </mxGeometry>
                </mxCell>
                <mxCell id="uDETKoptyffwtw7b9miy-29" value="" style="shape=partialRectangle;collapsible=0;dropTarget=0;pointerEvents=0;fillColor=none;top=0;left=0;bottom=0;right=0;points=[[0,0.5],[1,0.5]];portConstraint=eastwest;labelBackgroundColor=none;fontFamily=Georgia;fontColor=#FFFFFF;strokeColor=#66FF66;" parent="uDETKoptyffwtw7b9miy-0" vertex="1">
                    <mxGeometry y="319" width="200" height="41" as="geometry"/>
                </mxCell>
                <mxCell id="uDETKoptyffwtw7b9miy-30" value="7" style="shape=partialRectangle;html=1;whiteSpace=wrap;connectable=0;overflow=hidden;fillColor=none;top=0;left=0;bottom=0;right=0;pointerEvents=1;labelBackgroundColor=none;fontFamily=Georgia;fontColor=#FFFFFF;strokeColor=#66FF66;" parent="uDETKoptyffwtw7b9miy-29" vertex="1">
                    <mxGeometry width="40" height="41" as="geometry">
                        <mxRectangle width="40" height="41" as="alternateBounds"/>
                    </mxGeometry>
                </mxCell>
                <mxCell id="uDETKoptyffwtw7b9miy-31" value="4" style="shape=partialRectangle;html=1;whiteSpace=wrap;connectable=0;overflow=hidden;fillColor=none;top=0;left=0;bottom=0;right=0;pointerEvents=1;labelBackgroundColor=none;fontFamily=Georgia;fontColor=#FFFFFF;strokeColor=#66FF66;" parent="uDETKoptyffwtw7b9miy-29" vertex="1">
                    <mxGeometry x="40" width="80" height="41" as="geometry">
                        <mxRectangle width="80" height="41" as="alternateBounds"/>
                    </mxGeometry>
                </mxCell>
                <mxCell id="uDETKoptyffwtw7b9miy-32" value="3" style="shape=partialRectangle;html=1;whiteSpace=wrap;connectable=0;overflow=hidden;fillColor=none;top=0;left=0;bottom=0;right=0;pointerEvents=1;labelBackgroundColor=none;fontFamily=Georgia;fontColor=#FFFFFF;strokeColor=#66FF66;" parent="uDETKoptyffwtw7b9miy-29" vertex="1">
                    <mxGeometry x="120" width="80" height="41" as="geometry">
                        <mxRectangle width="80" height="41" as="alternateBounds"/>
                    </mxGeometry>
                </mxCell>
                <mxCell id="uDETKoptyffwtw7b9miy-33" value="" style="shape=partialRectangle;collapsible=0;dropTarget=0;pointerEvents=0;fillColor=none;top=0;left=0;bottom=0;right=0;points=[[0,0.5],[1,0.5]];portConstraint=eastwest;labelBackgroundColor=none;fontFamily=Georgia;fontColor=#FFFFFF;strokeColor=#66FF66;" parent="uDETKoptyffwtw7b9miy-0" vertex="1">
                    <mxGeometry y="360" width="200" height="39" as="geometry"/>
                </mxCell>
                <mxCell id="uDETKoptyffwtw7b9miy-34" value="8" style="shape=partialRectangle;html=1;whiteSpace=wrap;connectable=0;overflow=hidden;fillColor=none;top=0;left=0;bottom=0;right=0;pointerEvents=1;labelBackgroundColor=none;fontFamily=Georgia;fontColor=#FFFFFF;strokeColor=#66FF66;" parent="uDETKoptyffwtw7b9miy-33" vertex="1">
                    <mxGeometry width="40" height="39" as="geometry">
                        <mxRectangle width="40" height="39" as="alternateBounds"/>
                    </mxGeometry>
                </mxCell>
                <mxCell id="uDETKoptyffwtw7b9miy-35" value="3" style="shape=partialRectangle;html=1;whiteSpace=wrap;connectable=0;overflow=hidden;fillColor=none;top=0;left=0;bottom=0;right=0;pointerEvents=1;labelBackgroundColor=none;fontFamily=Georgia;fontColor=#FFFFFF;strokeColor=#66FF66;" parent="uDETKoptyffwtw7b9miy-33" vertex="1">
                    <mxGeometry x="40" width="80" height="39" as="geometry">
                        <mxRectangle width="80" height="39" as="alternateBounds"/>
                    </mxGeometry>
                </mxCell>
                <mxCell id="uDETKoptyffwtw7b9miy-36" value="4" style="shape=partialRectangle;html=1;whiteSpace=wrap;connectable=0;overflow=hidden;fillColor=none;top=0;left=0;bottom=0;right=0;pointerEvents=1;labelBackgroundColor=none;fontFamily=Georgia;fontColor=#FFFFFF;strokeColor=#66FF66;" parent="uDETKoptyffwtw7b9miy-33" vertex="1">
                    <mxGeometry x="120" width="80" height="39" as="geometry">
                        <mxRectangle width="80" height="39" as="alternateBounds"/>
                    </mxGeometry>
                </mxCell>
                <mxCell id="o-XWGakdBN-dqvuNeDRA-0" style="shape=partialRectangle;collapsible=0;dropTarget=0;pointerEvents=0;fillColor=none;top=0;left=0;bottom=0;right=0;points=[[0,0.5],[1,0.5]];portConstraint=eastwest;labelBackgroundColor=none;fontFamily=Georgia;fontColor=#FFFFFF;strokeColor=#66FF66;" parent="uDETKoptyffwtw7b9miy-0" vertex="1">
                    <mxGeometry y="399" width="200" height="41" as="geometry"/>
                </mxCell>
                <mxCell id="o-XWGakdBN-dqvuNeDRA-1" value="9" style="shape=partialRectangle;html=1;whiteSpace=wrap;connectable=0;overflow=hidden;fillColor=none;top=0;left=0;bottom=0;right=0;pointerEvents=1;labelBackgroundColor=none;fontFamily=Georgia;fontColor=#FFFFFF;strokeColor=#66FF66;" parent="o-XWGakdBN-dqvuNeDRA-0" vertex="1">
                    <mxGeometry width="40" height="41" as="geometry">
                        <mxRectangle width="40" height="41" as="alternateBounds"/>
                    </mxGeometry>
                </mxCell>
                <mxCell id="o-XWGakdBN-dqvuNeDRA-2" value="4" style="shape=partialRectangle;html=1;whiteSpace=wrap;connectable=0;overflow=hidden;fillColor=none;top=0;left=0;bottom=0;right=0;pointerEvents=1;labelBackgroundColor=none;fontFamily=Georgia;fontColor=#FFFFFF;strokeColor=#66FF66;" parent="o-XWGakdBN-dqvuNeDRA-0" vertex="1">
                    <mxGeometry x="40" width="80" height="41" as="geometry">
                        <mxRectangle width="80" height="41" as="alternateBounds"/>
                    </mxGeometry>
                </mxCell>
                <mxCell id="o-XWGakdBN-dqvuNeDRA-3" value="4" style="shape=partialRectangle;html=1;whiteSpace=wrap;connectable=0;overflow=hidden;fillColor=none;top=0;left=0;bottom=0;right=0;pointerEvents=1;labelBackgroundColor=none;fontFamily=Georgia;fontColor=#FFFFFF;strokeColor=#66FF66;" parent="o-XWGakdBN-dqvuNeDRA-0" vertex="1">
                    <mxGeometry x="120" width="80" height="41" as="geometry">
                        <mxRectangle width="80" height="41" as="alternateBounds"/>
                    </mxGeometry>
                </mxCell>
                <mxCell id="o-XWGakdBN-dqvuNeDRA-5" style="edgeStyle=none;html=1;exitX=1;exitY=0.5;exitDx=0;exitDy=0;entryX=0;entryY=0.5;entryDx=0;entryDy=0;fontFamily=Georgia;fontColor=#000000;endArrow=ERmany;endFill=0;" parent="3rnbf16T3xSzr0oEW06G-1" source="Q-CAjlZwqPiqT_vgyFkI-8" target="uDETKoptyffwtw7b9miy-5" edge="1">
                    <mxGeometry relative="1" as="geometry"/>
                </mxCell>
                <mxCell id="o-XWGakdBN-dqvuNeDRA-6" style="edgeStyle=none;html=1;exitX=0;exitY=0.5;exitDx=0;exitDy=0;entryX=1;entryY=0.5;entryDx=0;entryDy=0;fontFamily=Georgia;fontColor=#000000;endArrow=ERmany;endFill=0;" parent="3rnbf16T3xSzr0oEW06G-1" source="RCkqeMaOAAqJ8Tzpqa3i-8" target="uDETKoptyffwtw7b9miy-5" edge="1">
                    <mxGeometry relative="1" as="geometry"/>
                </mxCell>
                <mxCell id="zLOjrMK-CzAOkB3f13Hs-11" style="edgeStyle=none;html=1;exitX=0.5;exitY=0;exitDx=0;exitDy=0;entryX=0.5;entryY=1.075;entryDx=0;entryDy=0;entryPerimeter=0;fontFamily=Georgia;fontColor=#FFFFFF;endArrow=none;endFill=0;startArrow=classic;startFill=1;" parent="3rnbf16T3xSzr0oEW06G-1" source="zLOjrMK-CzAOkB3f13Hs-0" target="RCkqeMaOAAqJ8Tzpqa3i-29" edge="1">
                    <mxGeometry relative="1" as="geometry"/>
                </mxCell>
                <mxCell id="zLOjrMK-CzAOkB3f13Hs-0" value="methods" style="shape=table;startSize=41;container=1;collapsible=0;childLayout=tableLayout;labelBackgroundColor=none;fontFamily=Georgia;fontColor=#000000;strokeColor=#66FFFF;fillColor=#66FFFF;gradientColor=#66FF66;gradientDirection=north;swimlaneFillColor=#000000;fontStyle=3" parent="3rnbf16T3xSzr0oEW06G-1" vertex="1">
                    <mxGeometry x="1640" y="359" width="160" height="161" as="geometry"/>
                </mxCell>
                <mxCell id="zLOjrMK-CzAOkB3f13Hs-1" value="" style="shape=partialRectangle;collapsible=0;dropTarget=0;pointerEvents=0;fillColor=none;top=0;left=0;bottom=0;right=0;points=[[0,0.5],[1,0.5]];portConstraint=eastwest;labelBackgroundColor=none;fontFamily=Georgia;fontColor=#000000;strokeColor=#66FF66;" parent="zLOjrMK-CzAOkB3f13Hs-0" vertex="1">
                    <mxGeometry y="41" width="160" height="40" as="geometry"/>
                </mxCell>
                <mxCell id="zLOjrMK-CzAOkB3f13Hs-2" value="&lt;font color=&quot;#ffffff&quot;&gt;id&lt;/font&gt;" style="shape=partialRectangle;html=1;whiteSpace=wrap;connectable=0;overflow=hidden;fillColor=none;top=0;left=0;bottom=0;right=0;pointerEvents=1;labelBackgroundColor=none;fontFamily=Georgia;fontColor=#000000;strokeColor=#66FF66;" parent="zLOjrMK-CzAOkB3f13Hs-1" vertex="1">
                    <mxGeometry width="80" height="40" as="geometry">
                        <mxRectangle width="80" height="40" as="alternateBounds"/>
                    </mxGeometry>
                </mxCell>
                <mxCell id="zLOjrMK-CzAOkB3f13Hs-3" value="&lt;font color=&quot;#ffffff&quot;&gt;type&lt;/font&gt;" style="shape=partialRectangle;html=1;whiteSpace=wrap;connectable=0;overflow=hidden;fillColor=none;top=0;left=0;bottom=0;right=0;pointerEvents=1;labelBackgroundColor=none;fontFamily=Georgia;fontColor=#000000;strokeColor=#66FF66;" parent="zLOjrMK-CzAOkB3f13Hs-1" vertex="1">
                    <mxGeometry x="80" width="80" height="40" as="geometry">
                        <mxRectangle width="80" height="40" as="alternateBounds"/>
                    </mxGeometry>
                </mxCell>
                <mxCell id="zLOjrMK-CzAOkB3f13Hs-4" value="" style="shape=partialRectangle;collapsible=0;dropTarget=0;pointerEvents=0;fillColor=none;top=0;left=0;bottom=0;right=0;points=[[0,0.5],[1,0.5]];portConstraint=eastwest;labelBackgroundColor=none;fontFamily=Georgia;fontColor=#000000;strokeColor=#66FF66;" parent="zLOjrMK-CzAOkB3f13Hs-0" vertex="1">
                    <mxGeometry y="81" width="160" height="40" as="geometry"/>
                </mxCell>
                <mxCell id="zLOjrMK-CzAOkB3f13Hs-5" value="&lt;font color=&quot;#ffffff&quot;&gt;1&lt;/font&gt;" style="shape=partialRectangle;html=1;whiteSpace=wrap;connectable=0;overflow=hidden;fillColor=none;top=0;left=0;bottom=0;right=0;pointerEvents=1;labelBackgroundColor=none;fontFamily=Georgia;fontColor=#000000;strokeColor=#66FF66;" parent="zLOjrMK-CzAOkB3f13Hs-4" vertex="1">
                    <mxGeometry width="80" height="40" as="geometry">
                        <mxRectangle width="80" height="40" as="alternateBounds"/>
                    </mxGeometry>
                </mxCell>
                <mxCell id="zLOjrMK-CzAOkB3f13Hs-6" value="&lt;font color=&quot;#ffffff&quot;&gt;Tarjeta Debito&lt;/font&gt;" style="shape=partialRectangle;html=1;whiteSpace=wrap;connectable=0;overflow=hidden;fillColor=none;top=0;left=0;bottom=0;right=0;pointerEvents=1;labelBackgroundColor=none;fontFamily=Georgia;fontColor=#000000;strokeColor=#66FF66;" parent="zLOjrMK-CzAOkB3f13Hs-4" vertex="1">
                    <mxGeometry x="80" width="80" height="40" as="geometry">
                        <mxRectangle width="80" height="40" as="alternateBounds"/>
                    </mxGeometry>
                </mxCell>
                <mxCell id="zLOjrMK-CzAOkB3f13Hs-7" value="" style="shape=partialRectangle;collapsible=0;dropTarget=0;pointerEvents=0;fillColor=none;top=0;left=0;bottom=0;right=0;points=[[0,0.5],[1,0.5]];portConstraint=eastwest;labelBackgroundColor=none;fontFamily=Georgia;fontColor=#000000;strokeColor=#66FF66;" parent="zLOjrMK-CzAOkB3f13Hs-0" vertex="1">
                    <mxGeometry y="121" width="160" height="40" as="geometry"/>
                </mxCell>
                <mxCell id="zLOjrMK-CzAOkB3f13Hs-8" value="&lt;font color=&quot;#ffffff&quot;&gt;2&lt;/font&gt;" style="shape=partialRectangle;html=1;whiteSpace=wrap;connectable=0;overflow=hidden;fillColor=none;top=0;left=0;bottom=0;right=0;pointerEvents=1;labelBackgroundColor=none;fontFamily=Georgia;fontColor=#000000;strokeColor=#66FF66;" parent="zLOjrMK-CzAOkB3f13Hs-7" vertex="1">
                    <mxGeometry width="80" height="40" as="geometry">
                        <mxRectangle width="80" height="40" as="alternateBounds"/>
                    </mxGeometry>
                </mxCell>
                <mxCell id="zLOjrMK-CzAOkB3f13Hs-9" value="&lt;font color=&quot;#ffffff&quot;&gt;Efectivo&lt;/font&gt;" style="shape=partialRectangle;html=1;whiteSpace=wrap;connectable=0;overflow=hidden;fillColor=none;top=0;left=0;bottom=0;right=0;pointerEvents=1;labelBackgroundColor=none;fontFamily=Georgia;fontColor=#000000;strokeColor=#66FF66;" parent="zLOjrMK-CzAOkB3f13Hs-7" vertex="1">
                    <mxGeometry x="80" width="80" height="40" as="geometry">
                        <mxRectangle width="80" height="40" as="alternateBounds"/>
                    </mxGeometry>
                </mxCell>
                <mxCell id="R3Ir61o4SxM4lXskyQKo-12" style="edgeStyle=none;html=1;exitX=0.5;exitY=0;exitDx=0;exitDy=0;fontFamily=Georgia;fontColor=#FFFFFF;startArrow=classic;startFill=1;endArrow=none;endFill=0;entryX=0.415;entryY=1.1;entryDx=0;entryDy=0;entryPerimeter=0;" parent="3rnbf16T3xSzr0oEW06G-1" source="R3Ir61o4SxM4lXskyQKo-0" target="8IiVpp9iAI5D9PUYvPYm-25" edge="1">
                    <mxGeometry relative="1" as="geometry"/>
                </mxCell>
                <mxCell id="R3Ir61o4SxM4lXskyQKo-0" value="cities" style="shape=table;startSize=41;container=1;collapsible=0;childLayout=tableLayout;labelBackgroundColor=none;fontFamily=Georgia;strokeColor=#56517e;fillColor=#D0CEE2;gradientDirection=south;swimlaneFillColor=#000000;gradientColor=#6666FF;fontColor=#000000;fontStyle=3" parent="3rnbf16T3xSzr0oEW06G-1" vertex="1">
                    <mxGeometry x="2160" y="361" width="119" height="161" as="geometry"/>
                </mxCell>
                <mxCell id="R3Ir61o4SxM4lXskyQKo-1" value="" style="shape=partialRectangle;collapsible=0;dropTarget=0;pointerEvents=0;fillColor=none;top=0;left=0;bottom=0;right=0;points=[[0,0.5],[1,0.5]];portConstraint=eastwest;labelBackgroundColor=none;fontFamily=Georgia;fontColor=#000000;strokeColor=#66FF66;" parent="R3Ir61o4SxM4lXskyQKo-0" vertex="1">
                    <mxGeometry y="41" width="119" height="40" as="geometry"/>
                </mxCell>
                <mxCell id="R3Ir61o4SxM4lXskyQKo-2" value="&lt;font color=&quot;#ffffff&quot;&gt;id&lt;/font&gt;" style="shape=partialRectangle;html=1;whiteSpace=wrap;connectable=0;overflow=hidden;fillColor=none;top=0;left=0;bottom=0;right=0;pointerEvents=1;labelBackgroundColor=none;fontFamily=Georgia;fontColor=#000000;strokeColor=#66FF66;" parent="R3Ir61o4SxM4lXskyQKo-1" vertex="1">
                    <mxGeometry width="60" height="40" as="geometry">
                        <mxRectangle width="60" height="40" as="alternateBounds"/>
                    </mxGeometry>
                </mxCell>
                <mxCell id="R3Ir61o4SxM4lXskyQKo-3" value="&lt;font color=&quot;#ffffff&quot;&gt;name&lt;/font&gt;" style="shape=partialRectangle;html=1;whiteSpace=wrap;connectable=0;overflow=hidden;fillColor=none;top=0;left=0;bottom=0;right=0;pointerEvents=1;labelBackgroundColor=none;fontFamily=Georgia;fontColor=#000000;strokeColor=#66FF66;" parent="R3Ir61o4SxM4lXskyQKo-1" vertex="1">
                    <mxGeometry x="60" width="59" height="40" as="geometry">
                        <mxRectangle width="59" height="40" as="alternateBounds"/>
                    </mxGeometry>
                </mxCell>
                <mxCell id="R3Ir61o4SxM4lXskyQKo-4" value="" style="shape=partialRectangle;collapsible=0;dropTarget=0;pointerEvents=0;fillColor=none;top=0;left=0;bottom=0;right=0;points=[[0,0.5],[1,0.5]];portConstraint=eastwest;labelBackgroundColor=none;fontFamily=Georgia;fontColor=#000000;strokeColor=#66FF66;" parent="R3Ir61o4SxM4lXskyQKo-0" vertex="1">
                    <mxGeometry y="81" width="119" height="40" as="geometry"/>
                </mxCell>
                <mxCell id="R3Ir61o4SxM4lXskyQKo-5" value="&lt;font color=&quot;#ffffff&quot;&gt;1&lt;/font&gt;" style="shape=partialRectangle;html=1;whiteSpace=wrap;connectable=0;overflow=hidden;fillColor=none;top=0;left=0;bottom=0;right=0;pointerEvents=1;labelBackgroundColor=none;fontFamily=Georgia;fontColor=#000000;strokeColor=#66FF66;" parent="R3Ir61o4SxM4lXskyQKo-4" vertex="1">
                    <mxGeometry width="60" height="40" as="geometry">
                        <mxRectangle width="60" height="40" as="alternateBounds"/>
                    </mxGeometry>
                </mxCell>
                <mxCell id="R3Ir61o4SxM4lXskyQKo-6" value="&lt;font color=&quot;#ffffff&quot;&gt;BogotÃ¡&lt;/font&gt;" style="shape=partialRectangle;html=1;whiteSpace=wrap;connectable=0;overflow=hidden;fillColor=none;top=0;left=0;bottom=0;right=0;pointerEvents=1;labelBackgroundColor=none;fontFamily=Georgia;fontColor=#000000;strokeColor=#66FF66;" parent="R3Ir61o4SxM4lXskyQKo-4" vertex="1">
                    <mxGeometry x="60" width="59" height="40" as="geometry">
                        <mxRectangle width="59" height="40" as="alternateBounds"/>
                    </mxGeometry>
                </mxCell>
                <mxCell id="R3Ir61o4SxM4lXskyQKo-7" value="" style="shape=partialRectangle;collapsible=0;dropTarget=0;pointerEvents=0;fillColor=none;top=0;left=0;bottom=0;right=0;points=[[0,0.5],[1,0.5]];portConstraint=eastwest;labelBackgroundColor=none;fontFamily=Georgia;fontColor=#000000;strokeColor=#66FF66;" parent="R3Ir61o4SxM4lXskyQKo-0" vertex="1">
                    <mxGeometry y="121" width="119" height="40" as="geometry"/>
                </mxCell>
                <mxCell id="R3Ir61o4SxM4lXskyQKo-8" value="&lt;font color=&quot;#ffffff&quot;&gt;2&lt;/font&gt;" style="shape=partialRectangle;html=1;whiteSpace=wrap;connectable=0;overflow=hidden;fillColor=none;top=0;left=0;bottom=0;right=0;pointerEvents=1;labelBackgroundColor=none;fontFamily=Georgia;fontColor=#000000;strokeColor=#66FF66;" parent="R3Ir61o4SxM4lXskyQKo-7" vertex="1">
                    <mxGeometry width="60" height="40" as="geometry">
                        <mxRectangle width="60" height="40" as="alternateBounds"/>
                    </mxGeometry>
                </mxCell>
                <mxCell id="R3Ir61o4SxM4lXskyQKo-9" value="&lt;font color=&quot;#ffffff&quot;&gt;Cali&lt;/font&gt;" style="shape=partialRectangle;html=1;whiteSpace=wrap;connectable=0;overflow=hidden;fillColor=none;top=0;left=0;bottom=0;right=0;pointerEvents=1;labelBackgroundColor=none;fontFamily=Georgia;fontColor=#000000;strokeColor=#66FF66;" parent="R3Ir61o4SxM4lXskyQKo-7" vertex="1">
                    <mxGeometry x="60" width="59" height="40" as="geometry">
                        <mxRectangle width="59" height="40" as="alternateBounds"/>
                    </mxGeometry>
                </mxCell>
                <mxCell id="myJdJliOosBdlv4len4E-17" style="edgeStyle=none;html=1;exitX=0.416;exitY=0.013;exitDx=0;exitDy=0;fontFamily=Georgia;fontColor=#000000;startArrow=classic;startFill=1;endArrow=none;endFill=0;entryX=0.472;entryY=1.05;entryDx=0;entryDy=0;entryPerimeter=0;exitPerimeter=0;" parent="3rnbf16T3xSzr0oEW06G-1" source="myJdJliOosBdlv4len4E-7" target="Q-CAjlZwqPiqT_vgyFkI-29" edge="1">
                    <mxGeometry relative="1" as="geometry"/>
                </mxCell>
                <mxCell id="myJdJliOosBdlv4len4E-7" value="brands" style="shape=table;startSize=40;container=1;collapsible=0;childLayout=tableLayout;labelBackgroundColor=none;fontFamily=Georgia;fontColor=#000000;strokeColor=#FF66FF;fillColor=#66FFFF;gradientColor=#FF00FF;gradientDirection=south;swimlaneFillColor=#000000;fontStyle=3" parent="3rnbf16T3xSzr0oEW06G-1" vertex="1">
                    <mxGeometry x="920" y="361" width="120" height="160" as="geometry"/>
                </mxCell>
                <mxCell id="myJdJliOosBdlv4len4E-8" value="" style="shape=partialRectangle;collapsible=0;dropTarget=0;pointerEvents=0;fillColor=none;top=0;left=0;bottom=0;right=0;points=[[0,0.5],[1,0.5]];portConstraint=eastwest;labelBackgroundColor=#000000;fontFamily=Georgia;fontColor=#FFFFFF;strokeColor=#66FFFF;" parent="myJdJliOosBdlv4len4E-7" vertex="1">
                    <mxGeometry y="40" width="120" height="40" as="geometry"/>
                </mxCell>
                <mxCell id="myJdJliOosBdlv4len4E-9" value="&amp;nbsp;id" style="shape=partialRectangle;html=1;whiteSpace=wrap;connectable=0;overflow=hidden;fillColor=none;top=0;left=0;bottom=0;right=0;pointerEvents=1;labelBackgroundColor=#000000;fontFamily=Georgia;fontColor=#FFFFFF;strokeColor=#66FFFF;" parent="myJdJliOosBdlv4len4E-8" vertex="1">
                    <mxGeometry width="60" height="40" as="geometry">
                        <mxRectangle width="60" height="40" as="alternateBounds"/>
                    </mxGeometry>
                </mxCell>
                <mxCell id="myJdJliOosBdlv4len4E-10" value="name" style="shape=partialRectangle;html=1;whiteSpace=wrap;connectable=0;overflow=hidden;fillColor=none;top=0;left=0;bottom=0;right=0;pointerEvents=1;labelBackgroundColor=#000000;fontFamily=Georgia;fontColor=#FFFFFF;strokeColor=#66FFFF;" parent="myJdJliOosBdlv4len4E-8" vertex="1">
                    <mxGeometry x="60" width="60" height="40" as="geometry">
                        <mxRectangle width="60" height="40" as="alternateBounds"/>
                    </mxGeometry>
                </mxCell>
                <mxCell id="myJdJliOosBdlv4len4E-11" value="" style="shape=partialRectangle;collapsible=0;dropTarget=0;pointerEvents=0;fillColor=none;top=0;left=0;bottom=0;right=0;points=[[0,0.5],[1,0.5]];portConstraint=eastwest;labelBackgroundColor=#000000;fontFamily=Georgia;fontColor=#FFFFFF;strokeColor=#66FFFF;" parent="myJdJliOosBdlv4len4E-7" vertex="1">
                    <mxGeometry y="80" width="120" height="40" as="geometry"/>
                </mxCell>
                <mxCell id="myJdJliOosBdlv4len4E-12" value="1" style="shape=partialRectangle;html=1;whiteSpace=wrap;connectable=0;overflow=hidden;fillColor=none;top=0;left=0;bottom=0;right=0;pointerEvents=1;labelBackgroundColor=#000000;fontFamily=Georgia;fontColor=#FFFFFF;strokeColor=#66FFFF;" parent="myJdJliOosBdlv4len4E-11" vertex="1">
                    <mxGeometry width="60" height="40" as="geometry">
                        <mxRectangle width="60" height="40" as="alternateBounds"/>
                    </mxGeometry>
                </mxCell>
                <mxCell id="myJdJliOosBdlv4len4E-13" value="Mac" style="shape=partialRectangle;html=1;whiteSpace=wrap;connectable=0;overflow=hidden;fillColor=none;top=0;left=0;bottom=0;right=0;pointerEvents=1;labelBackgroundColor=#000000;fontFamily=Georgia;fontColor=#FFFFFF;strokeColor=#66FFFF;" parent="myJdJliOosBdlv4len4E-11" vertex="1">
                    <mxGeometry x="60" width="60" height="40" as="geometry">
                        <mxRectangle width="60" height="40" as="alternateBounds"/>
                    </mxGeometry>
                </mxCell>
                <mxCell id="myJdJliOosBdlv4len4E-14" value="" style="shape=partialRectangle;collapsible=0;dropTarget=0;pointerEvents=0;fillColor=none;top=0;left=0;bottom=0;right=0;points=[[0,0.5],[1,0.5]];portConstraint=eastwest;labelBackgroundColor=#000000;fontFamily=Georgia;fontColor=#FFFFFF;strokeColor=#66FFFF;" parent="myJdJliOosBdlv4len4E-7" vertex="1">
                    <mxGeometry y="120" width="120" height="40" as="geometry"/>
                </mxCell>
                <mxCell id="myJdJliOosBdlv4len4E-15" value="2" style="shape=partialRectangle;html=1;whiteSpace=wrap;connectable=0;overflow=hidden;fillColor=none;top=0;left=0;bottom=0;right=0;pointerEvents=1;labelBackgroundColor=#000000;fontFamily=Georgia;fontColor=#FFFFFF;strokeColor=#66FFFF;" parent="myJdJliOosBdlv4len4E-14" vertex="1">
                    <mxGeometry width="60" height="40" as="geometry">
                        <mxRectangle width="60" height="40" as="alternateBounds"/>
                    </mxGeometry>
                </mxCell>
                <mxCell id="myJdJliOosBdlv4len4E-16" value="Nivea" style="shape=partialRectangle;html=1;whiteSpace=wrap;connectable=0;overflow=hidden;fillColor=none;top=0;left=0;bottom=0;right=0;pointerEvents=1;labelBackgroundColor=#000000;fontFamily=Georgia;fontColor=#FFFFFF;strokeColor=#66FFFF;" parent="myJdJliOosBdlv4len4E-14" vertex="1">
                    <mxGeometry x="60" width="60" height="40" as="geometry">
                        <mxRectangle width="60" height="40" as="alternateBounds"/>
                    </mxGeometry>
                </mxCell>
            </root>
        </mxGraphModel>
    </diagram>
</mxfile>